<svg width="24" height="24" viewBox="0 0 24 24" fill="none" xmlns="http://www.w3.org/2000/svg">
<g clip-path="url(#clip0_2363_11209)">
<path d="M6.80762 0.5C6.89775 0.500005 6.9841 0.535895 7.04785 0.599609C7.11158 0.663335 7.14742 0.749727 7.14746 0.839844V2.91113H17.168V0.850586C17.168 0.760488 17.2039 0.674063 17.2676 0.610352C17.3313 0.546641 17.4177 0.510792 17.5078 0.510742C17.5979 0.510742 17.6843 0.546714 17.748 0.610352C17.8118 0.674065 17.8476 0.760491 17.8477 0.850586V2.91113H21.5996C22.1034 2.91113 22.5871 3.11068 22.9434 3.4668C23.2996 3.82284 23.4997 4.30593 23.5 4.80957V21.6016C23.4996 22.1049 23.2993 22.5874 22.9434 22.9434C22.5871 23.2995 22.1034 23.5 21.5996 23.5H2.40039C1.89664 23.5 1.41293 23.2995 1.05664 22.9434C0.745184 22.6319 0.553208 22.2235 0.509766 21.7891L0.5 21.6006V4.80957L0.509766 4.62207C0.553159 4.18732 0.744915 3.77837 1.05664 3.4668C1.41293 3.11068 1.89664 2.91113 2.40039 2.91113H6.46777V0.839844C6.4679 0.749794 6.50369 0.663259 6.56738 0.599609C6.63113 0.535952 6.71753 0.5 6.80762 0.5ZM17.5 18.043V19.042H16.5V18.043H17.5ZM12.5 18.043V19.042H11.5V18.043H12.5ZM7.5 18.043V19.042H6.5V18.043H7.5ZM17.5 13.2705V14.2695H16.5V13.2705H17.5ZM12.5 13.2705V14.2695H11.5V13.2705H12.5ZM7.5 13.2705V14.2695H6.5V13.2705H7.5ZM2.40039 3.58984C2.2403 3.58984 2.08151 3.6214 1.93359 3.68262C1.78558 3.74393 1.6504 3.83398 1.53711 3.94727C1.42395 4.06049 1.33372 4.19488 1.27246 4.34277C1.2112 4.49073 1.17969 4.64943 1.17969 4.80957V8.11133H1.67969L22.3193 8.12793L22.8203 8.12891V4.80957C22.8203 4.64943 22.7888 4.49072 22.7275 4.34277C22.6663 4.19489 22.5761 4.0605 22.4629 3.94727C22.3496 3.83398 22.2144 3.74393 22.0664 3.68262C21.9185 3.6214 21.7597 3.58984 21.5996 3.58984H17.8477V5.2041C17.8477 5.29425 17.8118 5.38058 17.748 5.44434C17.6843 5.5081 17.598 5.54395 17.5078 5.54395C17.4177 5.5439 17.3313 5.50806 17.2676 5.44434C17.204 5.3806 17.168 5.29416 17.168 5.2041V3.58984H7.14746V5.19336C7.14746 5.28347 7.11153 5.36984 7.04785 5.43359C6.98409 5.49735 6.89778 5.5332 6.80762 5.5332C6.71744 5.5332 6.63115 5.49736 6.56738 5.43359C6.50369 5.36984 6.46777 5.28348 6.46777 5.19336V3.58984H2.40039ZM22.8203 8.80762H22.3203L1.68066 8.79004H1.17969V21.6016C1.17974 21.7616 1.21119 21.9205 1.27246 22.0684C1.33375 22.2163 1.4239 22.3506 1.53711 22.4639C1.6504 22.5772 1.78558 22.6672 1.93359 22.7285C2.08148 22.7897 2.24034 22.8213 2.40039 22.8213H21.5996C21.7597 22.8213 21.9185 22.7897 22.0664 22.7285C22.2144 22.6672 22.3496 22.5772 22.4629 22.4639C22.5761 22.3506 22.6663 22.2163 22.7275 22.0684C22.7888 21.9205 22.8203 21.7617 22.8203 21.6016V8.80762Z" fill="#185D31" stroke="#185D31"/>
</g>
<defs>
<clipPath id="clip0_2363_11209">
<rect width="24" height="24" fill="white"/>
</clipPath>
</defs>
</svg>
