<svg width="231" height="228" viewBox="0 0 231 228" fill="none" xmlns="http://www.w3.org/2000/svg">
<path d="M115.504 227.5C178.885 227.5 230.266 176.684 230.266 114C230.266 51.3157 178.885 0.5 115.504 0.5C52.1229 0.5 0.742188 51.3157 0.742188 114C0.742188 176.684 52.1229 227.5 115.504 227.5Z" fill="#F8F9FA"/>
<path d="M77.1641 62.1709L15.9987 107.137L32.3076 68.8813L93.5625 30.0001L77.1641 62.1709Z" fill="#EDEDED"/>
<path d="M31.25 69.6737L93.5151 30.697V136.997L36.4388 177.011L31.25 69.6737Z" fill="#B0B0B0"/>
<path d="M93.5625 30.697L189.057 53.0316V159.369L93.5625 137.035V30.697Z" fill="#EDEDED"/>
<path d="M31.25 69.6699L128.821 92.4654V198.803L36.44 177.596L31.25 69.6699Z" fill="#EDEDED"/>
<path d="M126.734 92.5013L188.999 53.5247V159.825L126.734 198.801V92.5013Z" fill="#B0B0B0"/>
<mask id="mask0_484_47719" style="mask-type:luminance" maskUnits="userSpaceOnUse" x="126" y="53" width="63" height="146">
<path d="M126.734 92.5013L188.999 53.5247V159.825L126.734 198.801V92.5013Z" fill="white"/>
</mask>
<g mask="url(#mask0_484_47719)">
<rect x="149.984" y="44.6536" width="19.5703" height="162.993" fill="#B0B0B0"/>
</g>
<path d="M154.737 124.087L215.994 85.2063L187.991 53.5247L126.734 92.4056L154.737 124.087Z" fill="#EDEDED"/>
</svg>
