<svg width="32" height="32" viewBox="0 0 32 32" fill="none" xmlns="http://www.w3.org/2000/svg">
<rect width="32" height="32" rx="16" fill="white"/>
<path fill-rule="evenodd" clip-rule="evenodd" d="M18.6667 10.1621H13.3333C11.4924 10.1621 10 11.6545 10 13.4954V18.8288C10 20.6697 11.4924 22.1621 13.3333 22.1621H18.6667C20.5076 22.1621 22 20.6697 22 18.8288V13.4954C22 11.6545 20.5076 10.1621 18.6667 10.1621ZM20.8333 18.8288C20.8297 20.0238 19.8617 20.9918 18.6667 20.9954H13.3333C12.1382 20.9918 11.1703 20.0238 11.1667 18.8288V13.4954C11.1703 12.3003 12.1382 11.3324 13.3333 11.3288H18.6667C19.8617 11.3324 20.8297 12.3003 20.8333 13.4954V18.8288ZM19.1667 13.6621C19.5349 13.6621 19.8333 13.3636 19.8333 12.9954C19.8333 12.6273 19.5349 12.3288 19.1667 12.3288C18.7985 12.3288 18.5 12.6273 18.5 12.9954C18.5 13.3636 18.7985 13.6621 19.1667 13.6621ZM16 13.1621C14.3431 13.1621 13 14.5053 13 16.1621C13 17.819 14.3431 19.1621 16 19.1621C17.6569 19.1621 19 17.819 19 16.1621C19.0018 15.3659 18.6863 14.6018 18.1233 14.0388C17.5603 13.4758 16.7962 13.1603 16 13.1621ZM14.1667 16.1621C14.1667 17.1746 14.9875 17.9954 16 17.9954C17.0125 17.9954 17.8333 17.1746 17.8333 16.1621C17.8333 15.1496 17.0125 14.3288 16 14.3288C14.9875 14.3288 14.1667 15.1496 14.1667 16.1621Z" fill="#185D31"/>
</svg>
