<svg width="24" height="24" viewBox="0 0 24 24" fill="none" xmlns="http://www.w3.org/2000/svg">
<g clip-path="url(#clip0_1816_60671)">
<path d="M49.1378 32.7586H0.862108C0.386034 32.7586 0 32.3726 0 31.8965V0.862107C0 0.386034 0.386034 0 0.862108 0H49.1379C49.614 0 50 0.386034 50 0.862107V31.8965C49.9999 32.3727 49.6139 32.7586 49.1378 32.7586Z" fill="#185D31"/>
<path d="M4.96435 9.48244C5.00513 9.74386 5.16314 9.82589 5.30053 9.81516C5.46253 9.8026 5.60461 9.65447 5.60461 9.498V8.60091C5.60461 8.55601 5.64117 8.51935 5.68617 8.51935C5.73117 8.51935 5.76774 8.55596 5.76774 8.60091V9.50185C5.76774 9.61018 5.82127 9.71119 5.91103 9.77185C5.96583 9.80897 6.02963 9.82805 6.09389 9.82805C6.13481 9.82805 6.17592 9.82022 6.21511 9.80461L6.29663 9.77204C6.30413 10.5251 6.25833 11.1869 6.25748 11.199C6.25111 11.2889 6.3187 11.367 6.40856 11.3733C6.41255 11.3737 6.41644 11.3738 6.42038 11.3738C6.50522 11.3738 6.5768 11.3082 6.58294 11.2223C6.58673 11.1693 6.63698 10.4445 6.62194 9.64191L6.67125 9.62222C6.71447 9.60502 6.76303 9.60708 6.80461 9.6278C6.98428 9.71733 7.20047 9.68241 7.34245 9.54047L7.37184 9.51113C7.50366 9.37908 7.54898 9.18727 7.48997 9.01032L7.35108 8.59365C7.42617 8.61624 7.50867 8.58301 7.54495 8.51068C7.58526 8.4301 7.55259 8.33213 7.47201 8.29182L7.14581 8.12869C7.0868 8.09907 7.01597 8.10816 6.96595 8.15129C6.91608 8.19465 6.89723 8.2636 6.91809 8.32618L7.18055 9.11358C7.20019 9.17251 7.18509 9.23654 7.14117 9.2805L7.11183 9.30985C7.06931 9.35236 7.00453 9.36272 6.95039 9.33596C6.84469 9.28313 6.72431 9.27324 6.61139 9.30202C6.58847 8.77847 6.53208 8.25713 6.41198 7.89671C6.38353 7.8113 6.29133 7.76499 6.20559 7.79363C6.12014 7.82199 6.07397 7.91434 6.10247 7.99993C6.21999 8.35238 6.27117 8.88952 6.28936 9.42361L6.09408 9.50171V8.60077C6.09408 8.37587 5.91113 8.19296 5.68627 8.19296C5.46141 8.19296 5.27846 8.37582 5.27846 8.60077V9.39038L5.11205 8.56843C5.09433 8.48002 5.00836 8.42237 4.91986 8.44083C4.8315 8.45883 4.77441 8.54485 4.79236 8.63312L4.96435 9.48244Z" fill="white"/>
<path d="M5.27836 8.11242C5.36845 8.11242 5.44148 8.03948 5.44148 7.9493V7.78617C5.44148 7.69603 5.36845 7.62305 5.27836 7.62305C5.18827 7.62305 5.11523 7.69598 5.11523 7.78617V7.9493C5.11523 8.03944 5.18827 8.11242 5.27836 8.11242Z" fill="white"/>
<path d="M6.91117 7.9493H7.0743C7.16439 7.9493 7.23742 7.87636 7.23742 7.78617C7.23742 7.69603 7.16439 7.62305 7.0743 7.62305H6.91117C6.82108 7.62305 6.74805 7.69598 6.74805 7.78617C6.74805 7.87636 6.82108 7.9493 6.91117 7.9493Z" fill="white"/>
<path d="M5.84792 10.0917L5.03234 10.581C4.95504 10.6274 4.93006 10.7276 4.97642 10.8049C5.00698 10.8558 5.06098 10.884 5.11643 10.884C5.14503 10.884 5.17395 10.8765 5.20025 10.8607L6.01582 10.3714C6.09312 10.325 6.1181 10.2248 6.07174 10.1475C6.02539 10.0703 5.92526 10.0453 5.84792 10.0917Z" fill="white"/>
<path d="M8.04569 10.3806L8.04953 10.378C8.06322 10.4331 8.0867 10.4865 8.12481 10.5313C8.19109 10.6093 8.29047 10.6486 8.40278 10.6393C8.56211 10.6277 8.67039 10.5549 8.74211 10.4609C8.75303 10.4684 8.76451 10.4752 8.77651 10.4813C8.86468 10.5257 8.96664 10.5224 9.06372 10.472C9.31023 10.345 9.36334 10.0513 9.35584 9.89776C9.35143 9.80823 9.27531 9.74504 9.18601 9.74326C9.09643 9.74711 9.02668 9.82309 9.02992 9.91262C9.03001 9.91468 9.03362 10.1082 8.91531 10.1801C8.896 10.1532 8.87312 10.0926 8.8645 10.0426C8.85072 9.95865 8.77361 9.9002 8.69064 9.9069C8.60608 9.91356 8.54073 9.98462 8.54045 10.0695C8.54036 10.0932 8.53511 10.3025 8.37353 10.3201C8.35473 10.2944 8.3544 10.1864 8.37292 10.1066C8.38853 10.0411 8.36228 9.97276 8.30687 9.93456C8.25137 9.89617 8.1782 9.89617 8.12247 9.93395L8.03144 9.99587C7.98822 9.04994 7.88861 7.94767 7.88739 7.93356C7.87928 7.84403 7.80044 7.77728 7.7102 7.78591C7.62048 7.79402 7.55434 7.87337 7.5625 7.96323C7.56391 7.97833 7.67908 9.25365 7.71461 10.2276C7.70626 10.2355 7.69769 10.2442 7.68953 10.2518C7.62503 10.0892 7.49716 9.98673 7.33248 9.97112C7.10008 9.95059 6.84827 10.1087 6.75798 10.3346C6.68017 10.529 6.72916 10.72 6.88267 10.8211C6.99306 10.8939 7.15966 10.9168 7.36914 10.8434C7.318 11.0231 7.22486 11.2053 7.10383 11.3463C6.99541 11.4726 6.81438 11.6184 6.58272 11.6118C6.44786 11.6065 6.34427 11.5624 6.26594 11.4767C6.07708 11.2704 6.09335 10.8971 6.09349 10.8931C6.09817 10.8032 6.02936 10.7267 5.9396 10.7217C5.84917 10.7121 5.77267 10.7856 5.76771 10.8756C5.76658 10.8962 5.74291 11.3869 6.02383 11.6955C6.16211 11.8476 6.34581 11.929 6.56988 11.9378C6.5808 11.9382 6.59172 11.9384 6.60269 11.9384C6.87555 11.9384 7.1403 11.8045 7.35119 11.5588C7.54956 11.3278 7.68428 11.014 7.72469 10.7227C7.72417 11.2807 7.38789 11.9101 6.94206 12.1873C6.75274 12.3049 6.45756 12.411 6.12508 12.247C5.71521 12.0447 5.76405 11.5763 5.76621 11.5571C5.77741 11.4677 5.71399 11.3862 5.6246 11.3751C5.53563 11.3642 5.4536 11.4272 5.44253 11.5167C5.43888 11.5458 5.3605 12.2335 5.98075 12.5395C6.14008 12.6181 6.30667 12.6572 6.47458 12.6572C6.69025 12.6572 6.90794 12.5927 7.11428 12.4643C7.65709 12.1269 8.05108 11.3939 8.05108 10.7214C8.05103 10.6162 8.04901 10.5014 8.04569 10.3806ZM7.06211 10.5487C7.03295 10.5294 7.05573 10.4678 7.06066 10.4555C7.09502 10.3695 7.20245 10.2951 7.28828 10.2951C7.29269 10.2951 7.29714 10.2953 7.30141 10.2957C7.32227 10.2977 7.37762 10.3029 7.40144 10.426C7.40397 10.4391 7.40612 10.4525 7.40781 10.4662C7.22603 10.5729 7.10416 10.5763 7.06211 10.5487Z" fill="white"/>
<path d="M5.36155 12.05C5.28425 12.0046 5.18441 12.0305 5.13856 12.1078C5.13106 12.1204 5.12113 12.1341 5.111 12.1465C5.10922 12.1424 5.10749 12.1379 5.1057 12.1331C5.03769 11.9517 5.08611 11.6721 5.11058 11.5797C5.13359 11.4928 5.0818 11.4036 4.99489 11.3803C4.90808 11.3579 4.81878 11.4086 4.79544 11.4956C4.78358 11.5397 4.68331 11.9357 4.80022 12.2476C4.87508 12.4471 4.99002 12.4974 5.07331 12.5042C5.08072 12.5048 5.08803 12.5052 5.0953 12.5052C5.27089 12.5052 5.38775 12.3282 5.42023 12.2721C5.46528 12.1945 5.43889 12.0956 5.36155 12.05Z" fill="white"/>
<path d="M8.37222 9.09103C8.40752 9.09103 8.44305 9.07968 8.47286 9.05615L9.29524 8.41055C9.30658 8.40164 9.31385 8.38997 9.32214 8.379C9.4406 8.30756 9.52071 8.17894 9.52071 8.03086C9.52071 7.80595 9.33775 7.62305 9.11289 7.62305C8.88804 7.62305 8.70508 7.80591 8.70508 8.03086C8.70508 8.15672 8.76358 8.26795 8.8534 8.34281L8.27135 8.79975C8.20052 8.85534 8.18819 8.9579 8.24379 9.02864C8.27599 9.06965 8.3239 9.09103 8.37222 9.09103ZM9.11294 7.94925C9.15794 7.94925 9.1945 7.98586 9.1945 8.03081C9.1945 8.07577 9.15794 8.11237 9.11294 8.11237C9.06794 8.11237 9.03138 8.07577 9.03138 8.03081C9.03138 7.98586 9.06794 7.94925 9.11294 7.94925Z" fill="white"/>
<path d="M8.91896 8.93621C8.83304 8.90757 8.74103 8.95388 8.71257 9.03929C8.69513 9.09151 8.61624 9.36062 8.77613 9.52032C8.8382 9.58243 8.91971 9.61351 9.01984 9.61332C9.08673 9.61332 9.16191 9.59963 9.24516 9.57174C9.33062 9.54338 9.37679 9.45104 9.34829 9.36544C9.31979 9.28004 9.22759 9.23354 9.1419 9.26237C9.05077 9.29265 9.01224 9.28773 9.00873 9.29087C8.99912 9.26668 9.00545 9.19384 9.02218 9.14176C9.0504 9.05663 9.00423 8.96457 8.91896 8.93621Z" fill="white"/>
<path d="M10.7854 8.26116C10.8007 8.26561 10.8161 8.26767 10.8312 8.26767C10.9018 8.26767 10.9669 8.2215 10.9877 8.15025L11.0829 7.82405C11.1081 7.73756 11.0584 7.64691 10.972 7.62174C10.8853 7.59671 10.795 7.64611 10.7697 7.7326L10.6746 8.0588C10.6493 8.14542 10.699 8.23603 10.7854 8.26116Z" fill="white"/>
<path d="M9.83625 8.24241C9.86213 8.25755 9.89054 8.26473 9.91843 8.26473C9.97449 8.26473 10.0291 8.2359 10.0594 8.18401C10.1048 8.10629 10.0787 8.00621 10.0009 7.96084C9.96811 7.94171 9.97257 7.88771 9.97379 7.87702C9.97866 7.83418 10.0042 7.78191 10.0486 7.76809C10.1347 7.74137 10.1827 7.64991 10.1559 7.5639C10.129 7.47774 10.0378 7.43007 9.95161 7.45651C9.789 7.50713 9.67046 7.6577 9.6496 7.83994C9.63029 8.00954 9.70182 8.16376 9.83625 8.24241Z" fill="white"/>
<path d="M8.54203 10.8848C8.45194 10.8848 8.37891 10.9577 8.37891 11.0479C8.37891 11.1275 8.43595 11.1938 8.51142 11.2081C8.52 11.2207 8.54198 11.2639 8.54198 11.3741C8.54198 11.4642 8.61501 11.5372 8.70511 11.5372C8.7952 11.5372 8.86823 11.4643 8.86823 11.3741C8.86828 10.8903 8.55534 10.8848 8.54203 10.8848Z" fill="white"/>
<path d="M11.3089 10.2087C11.3293 10.212 11.3497 10.2136 11.3702 10.2136C11.4984 10.2136 11.6278 10.1489 11.7561 10.0207C11.8198 9.95699 11.8198 9.85377 11.7561 9.79007C11.6924 9.72636 11.5892 9.72636 11.5255 9.79007C11.4279 9.88771 11.3754 9.88977 11.362 9.88672C11.3308 9.88227 11.3026 9.84163 11.2963 9.83052C11.2554 9.75116 11.1584 9.71952 11.0785 9.75946C10.9979 9.79977 10.9652 9.89774 11.0056 9.97832C11.0156 9.99857 11.1098 10.1763 11.3089 10.2087Z" fill="white"/>
<path d="M14.082 9.06304C14.081 9.06051 14.08 9.05812 14.0792 9.05587C14.0503 8.97116 13.9579 8.92508 13.8734 8.95391C13.7878 8.98227 13.7416 9.07462 13.7701 9.16021C13.7828 9.19841 13.8555 9.39022 14.0355 9.41441C14.0476 9.41601 14.0595 9.4168 14.0714 9.4168C14.1844 9.4168 14.2904 9.34368 14.3869 9.19902C14.4368 9.12416 14.4165 9.02287 14.3416 8.97285C14.2665 8.92297 14.1652 8.94304 14.1154 9.01813C14.1025 9.0374 14.0914 9.05207 14.082 9.06304Z" fill="white"/>
<path d="M13.7616 12.0265C13.7616 11.3309 13.731 10.6783 13.6886 10.1066C13.9202 10.5082 14.1285 10.9141 14.2613 11.2682C14.2859 11.3337 14.348 11.374 14.414 11.374C14.433 11.374 14.4524 11.3706 14.4712 11.3637C14.5556 11.332 14.5984 11.238 14.5667 11.1536C14.3602 10.6032 13.9892 9.94766 13.6234 9.36576C13.5343 8.48709 13.4344 7.92937 13.4327 7.91943C13.4166 7.83074 13.3319 7.77084 13.2431 7.78813C13.1544 7.80421 13.0956 7.8891 13.1117 7.9777C13.113 7.98477 13.1644 8.27207 13.2259 8.75559C13.1005 8.56963 12.9841 8.40187 12.8864 8.26377L12.8944 8.26631C12.9803 8.29495 13.0722 8.24863 13.1008 8.16323C13.1293 8.07768 13.0831 7.98529 12.9976 7.95693L12.5083 7.79381C12.4404 7.77088 12.3659 7.79512 12.3244 7.8531C12.3133 7.86857 12.3057 7.88554 12.3005 7.90307C12.2029 7.83088 12.0776 7.7722 11.9601 7.82142C11.8889 7.8509 11.8042 7.9251 11.8042 8.11162C11.8042 8.25482 11.8588 8.40965 11.9167 8.57371C12.0128 8.84577 12.0729 9.04584 11.9712 9.14127C11.915 9.19396 11.8588 9.21388 11.8041 9.20005C11.7035 9.17455 11.6039 9.04059 11.5376 8.84165C11.5347 8.83302 11.5287 8.82674 11.5245 8.81901C11.5589 8.56635 11.5439 8.26195 11.4748 7.91652C11.4572 7.82812 11.3714 7.7706 11.2828 7.7886C11.1944 7.80627 11.1372 7.89215 11.1549 7.98056C11.2614 8.5132 11.2294 8.94773 11.0694 9.14291C11.0076 9.21843 10.93 9.25344 10.8255 9.25344C10.7925 9.25344 10.7699 9.24294 10.7475 9.21712C10.6188 9.0688 10.6193 8.5903 10.6608 8.29766C10.6674 8.25102 10.6534 8.20354 10.6224 8.16782C10.5915 8.13215 10.5465 8.11162 10.4993 8.11162C10.2187 8.11162 10.1122 8.43084 10.0183 8.71246C9.97716 8.83626 9.90037 9.06641 9.84684 9.09032C9.74812 9.09032 9.68428 8.8004 9.68372 8.6008C9.68344 8.5108 9.61055 8.43801 9.52059 8.43801C9.52059 8.43801 9.52045 8.43801 9.52031 8.43801C9.43031 8.43801 9.35742 8.51095 9.35742 8.60095C9.35742 8.97716 9.48558 9.41652 9.8468 9.41652C10.1158 9.41652 10.2247 9.12341 10.3159 8.85102C10.3318 9.06763 10.3807 9.29207 10.5009 9.43068C10.5855 9.52818 10.6976 9.5796 10.8255 9.5796C11.0269 9.5796 11.1984 9.5001 11.3217 9.34973C11.344 9.32254 11.3632 9.29127 11.3822 9.25973C11.4769 9.39435 11.5931 9.48318 11.724 9.51622C11.7624 9.52593 11.8011 9.53085 11.8393 9.53085C11.9652 9.53085 12.0882 9.47891 12.1945 9.37902C12.2166 9.35821 12.2321 9.33557 12.2489 9.31321C12.2888 9.3246 12.3293 9.33135 12.3695 9.33135C12.5016 9.33135 12.6288 9.27815 12.7078 9.22748C12.7833 9.17905 12.8051 9.07902 12.7572 9.00318C12.7091 8.92752 12.6086 8.90488 12.5326 8.95237C12.5312 8.95302 12.4222 9.01565 12.3479 9.00093C12.3481 8.8221 12.2834 8.63221 12.2244 8.46491C12.1908 8.36962 12.1563 8.27202 12.14 8.19224C12.1535 8.20359 12.1666 8.21535 12.1784 8.22679C12.2419 8.29049 12.3452 8.29049 12.4089 8.22679C12.4195 8.21624 12.4256 8.20345 12.4326 8.19112C12.6017 8.42404 12.9494 8.91351 13.3071 9.47774C13.3754 10.1713 13.4354 11.0559 13.4354 12.0262C13.4354 12.1164 13.5084 12.1894 13.5985 12.1894C13.6886 12.1895 13.7616 12.1167 13.7616 12.0265Z" fill="white"/>
<path d="M13.9249 8.43751C13.9249 8.52765 13.9979 8.60063 14.088 8.60063C14.1781 8.60063 14.2511 8.52769 14.2511 8.43751C14.2511 8.24555 14.1009 7.93543 14.0708 7.87519C14.0305 7.79476 13.9326 7.76227 13.8519 7.80226C13.7714 7.84257 13.7386 7.94054 13.779 8.02112C13.8378 8.13882 13.9249 8.35243 13.9249 8.43751Z" fill="white"/>
<path d="M13.1819 12.0452C13.1019 12.0044 13.0036 12.0368 12.9629 12.1171C12.9454 12.1513 12.9182 12.1894 12.8953 12.2139C12.8881 12.1491 12.9054 12.0196 12.9383 11.9122C12.9601 11.8405 12.9304 11.7631 12.8663 11.7246C12.8023 11.6859 12.7199 11.6959 12.6669 11.7489L12.3407 12.0752C12.277 12.1389 12.277 12.2421 12.3407 12.3058C12.4044 12.3695 12.5077 12.3695 12.5714 12.3058L12.5797 12.2975C12.5938 12.363 12.6208 12.4227 12.667 12.4689C12.7282 12.5301 12.8021 12.5624 12.8789 12.5624C12.8938 12.5624 12.9088 12.5611 12.9238 12.5588C13.1086 12.5288 13.2236 12.3251 13.2544 12.2634C13.2945 12.183 13.262 12.0857 13.1819 12.0452Z" fill="white"/>
<path d="M13.1197 10.7322H11.9701C11.9803 10.6916 11.9908 10.6528 12.0015 10.6161C12.4599 10.5208 12.7324 10.3728 12.8125 10.1754C12.8402 10.1069 12.8692 9.96846 12.7512 9.80932C12.6448 9.66593 12.4947 9.60161 12.3388 9.63344C12.107 9.68041 11.9005 9.93016 11.7523 10.33C11.2919 10.4088 10.9971 10.5741 10.8105 10.7372C10.7443 10.0688 10.4849 9.67169 10.4722 9.6528C10.4222 9.57776 10.3208 9.55751 10.246 9.60752C10.1711 9.65754 10.1509 9.75869 10.2007 9.83369C10.2037 9.83815 10.4996 10.2907 10.4996 11.0481C10.4996 11.7926 9.90591 12.353 9.52092 12.353C9.33778 12.353 9.25758 12.1353 9.22238 11.9512C9.59934 11.687 9.93197 11.3813 10.0054 11.0876C10.1048 10.6901 9.97973 10.3972 9.89695 10.2034C9.89306 10.1945 9.88898 10.1849 9.88486 10.175C9.88837 10.1782 9.8917 10.1816 9.89503 10.1847C9.95859 10.2484 10.0619 10.2484 10.1256 10.1847C10.1893 10.121 10.1893 10.0178 10.1256 9.95411C10.0303 9.85868 9.84511 9.70877 9.67678 9.77922C9.60567 9.80871 9.52092 9.88291 9.52092 10.0694C9.52092 10.1537 9.55613 10.236 9.59691 10.3316C9.67036 10.5035 9.76172 10.7174 9.68887 11.0086C9.6458 11.1809 9.4342 11.3899 9.15497 11.5975C9.12502 11.5616 9.0818 11.5376 9.03155 11.5376H9.03127C8.94127 11.5377 8.86838 11.6105 8.86838 11.7005C8.86838 11.7299 8.86969 11.7612 8.87156 11.7934C8.52249 12.0195 8.12747 12.2288 7.82213 12.3676C7.74019 12.4049 7.70396 12.5016 7.74122 12.5836C7.76855 12.6437 7.8278 12.6792 7.88977 12.6792C7.91236 12.6792 7.93533 12.6746 7.95718 12.6646C8.04886 12.6229 8.48419 12.4201 8.93138 12.1429C9.01374 12.4225 9.18825 12.6793 9.52088 12.6793C9.91219 12.6793 10.3561 12.3593 10.6123 11.8816C10.6432 11.9362 10.6787 11.9885 10.7212 12.0373C11.1317 12.5108 11.9337 12.5162 11.9676 12.5162C12.0554 12.5162 12.1274 12.4467 12.1306 12.3589C12.1337 12.2711 12.0668 12.1966 11.9793 12.1904C11.978 12.1903 11.848 12.1759 11.7757 12.0915C11.7321 12.0406 11.7146 11.9704 11.7223 11.8773C11.739 11.6763 12.3874 11.526 12.9589 11.5172C13.027 11.516 13.0873 11.4729 13.1101 11.4087L13.2732 10.95C13.2909 10.9001 13.2833 10.8445 13.2527 10.8014C13.2225 10.758 13.1727 10.7322 13.1197 10.7322ZM12.4037 9.95327C12.4068 9.95266 12.4109 9.95168 12.4162 9.95168C12.4318 9.95168 12.4564 9.95932 12.4892 10.0036C12.4954 10.0119 12.5152 10.0402 12.5102 10.0527C12.4915 10.0989 12.3789 10.1752 12.1443 10.2443C12.2474 10.0429 12.3484 9.96443 12.4037 9.95327ZM11.4187 12.0975C11.2529 12.0436 11.0841 11.9583 10.9672 11.823C10.8387 11.6744 10.7912 11.4865 10.8224 11.2486C10.827 11.2361 10.8377 11.2115 10.8564 11.1795C11.0861 11.1584 11.6997 11.2489 11.7422 11.4247C11.5529 11.5213 11.4135 11.6571 11.3974 11.8503C11.3893 11.9471 11.3992 12.0292 11.4187 12.0975Z" fill="white"/>
<path d="M14.8943 8.38615L14.7311 7.89678C14.7048 7.81812 14.6232 7.77111 14.5423 7.78892C14.4609 7.80631 14.4058 7.88192 14.4141 7.96461C14.5266 9.09017 14.7395 11.2852 14.7395 11.5369C14.7395 11.7629 14.3375 12.208 13.6879 12.5328C13.6073 12.5731 13.5746 12.671 13.6149 12.7517C13.6435 12.8088 13.7011 12.8418 13.761 12.8418C13.7855 12.8418 13.8104 12.8362 13.8338 12.8246C14.4272 12.5279 15.0658 11.9984 15.0658 11.5369C15.0658 11.2959 14.8991 9.56187 14.8036 8.58781C14.8809 8.55481 14.9213 8.46743 14.8943 8.38615Z" fill="white"/>
<path d="M16.2558 9.85881C16.2872 9.89022 16.3289 9.90662 16.3712 9.90662C16.3988 9.90662 16.4266 9.89964 16.4518 9.88525C16.5156 9.84892 16.5473 9.77439 16.5292 9.70318C16.5 9.58853 16.4903 9.44514 16.5057 9.38654C16.5874 9.38908 16.6633 9.33095 16.6753 9.24667C16.688 9.15747 16.6261 9.07478 16.5369 9.06208C16.4291 9.04745 16.3344 9.07914 16.2682 9.15268C16.2254 9.2005 16.1999 9.26181 16.1861 9.32776L15.9972 9.13886C15.9334 9.07515 15.8302 9.07515 15.7665 9.13886C15.7028 9.20256 15.7028 9.30578 15.7665 9.36948L16.2558 9.85881Z" fill="white"/>
<path d="M16.6232 10.0288L16.0115 10.4672C15.9383 10.5196 15.9214 10.6216 15.9739 10.6948C16.0058 10.7393 16.0558 10.7629 16.1067 10.7629C16.1396 10.7629 16.1728 10.753 16.2016 10.7323L16.8132 10.2939C16.8864 10.2415 16.9033 10.1396 16.8508 10.0663C16.7982 9.99299 16.6961 9.97593 16.6232 10.0288Z" fill="white"/>
<path d="M16.5676 10.6411C16.5162 10.7072 16.5236 10.8003 16.5818 10.8575C16.5888 10.8693 16.6207 10.9317 16.6149 11.0923C16.6117 11.1824 16.6821 11.2579 16.7721 11.2611C16.7741 11.2612 16.7761 11.2612 16.778 11.2612C16.8655 11.2612 16.9378 11.1919 16.941 11.104C16.9528 10.7711 16.8439 10.6494 16.7965 10.6126C16.7255 10.557 16.6229 10.5701 16.5676 10.6411Z" fill="white"/>
<path d="M17.9924 11.8425C18.0825 11.8425 18.1556 11.7695 18.1556 11.6793C18.1556 11.4387 18.1432 11.17 18.123 10.8905C18.2848 11.1555 18.4191 11.3999 18.5053 11.6008C18.5317 11.6628 18.5919 11.6997 18.6552 11.6997C18.6766 11.6997 18.6984 11.6956 18.7194 11.6865C18.8022 11.651 18.8405 11.5551 18.805 11.4724C18.6556 11.1239 18.3765 10.6623 18.0587 10.1857C17.9947 9.58703 17.9111 9.00039 17.8461 8.5796C17.8807 8.58311 17.9166 8.57467 17.948 8.55424C17.9995 8.52124 18.0237 8.46391 18.0202 8.40686C18.0244 8.42289 18.0289 8.43897 18.0382 8.45374C18.0394 8.45533 18.1442 8.62844 18.0977 8.85311C18.0794 8.94119 18.1362 9.02753 18.2244 9.04581C18.2355 9.04802 18.2467 9.04919 18.2576 9.04919C18.3333 9.04919 18.4011 8.99613 18.4172 8.91906C18.4908 8.56272 18.3207 8.29005 18.3135 8.27857C18.2651 8.20272 18.1642 8.18046 18.0882 8.22855C18.0365 8.2615 18.012 8.31888 18.0154 8.37607C18.0111 8.35994 18.0065 8.34372 17.997 8.32896L17.7217 7.9008C17.6796 7.83546 17.5973 7.80902 17.5251 7.8371C17.4527 7.86546 17.4104 7.94079 17.4238 8.01724C17.4261 8.03008 17.5507 8.74586 17.6612 9.6086C17.5362 9.43202 17.4111 9.25938 17.2899 9.09456C17.2702 8.84777 17.2504 8.61963 17.2333 8.43096C17.2423 8.42829 17.2512 8.42477 17.2598 8.42046C17.3404 8.38014 17.3731 8.28218 17.3328 8.2016L17.1696 7.8754C17.1344 7.80499 17.0541 7.76993 16.9784 7.79158C16.9029 7.81357 16.8536 7.88618 16.8614 7.96455C16.8809 8.15922 16.9011 8.37471 16.921 8.60107C16.8179 8.46508 16.7224 8.34058 16.6407 8.23516C16.6567 8.22147 16.6702 8.20446 16.6803 8.18435C16.7206 8.10377 16.6879 8.0058 16.6073 7.96549L16.2811 7.80236C16.2127 7.76829 16.1296 7.78615 16.0813 7.84572C16.0332 7.9053 16.0329 7.99033 16.0808 8.05024C16.0897 8.06121 16.4913 8.56464 16.9717 9.21442C17.055 10.2921 17.1105 11.4132 17.0322 11.6483C17.0178 11.6912 16.9928 11.7419 16.9693 11.7437C16.8707 11.7574 16.6354 11.537 16.5172 11.3007C16.4491 11.1647 16.3512 11.1505 16.2988 11.1529C16.1234 11.1637 16.0551 11.3566 15.9307 11.7068C15.8416 11.9576 15.7309 12.2695 15.6066 12.3971C15.5392 12.3148 15.4522 12.0387 15.4038 11.755C15.4265 11.8177 15.4852 11.863 15.5558 11.863C15.6459 11.863 15.7189 11.7901 15.7189 11.6999C15.7189 11.4566 15.5488 9.6041 15.4538 8.58883C15.5332 8.55696 15.5749 8.46827 15.5474 8.38605L15.3843 7.89668C15.3581 7.81802 15.2776 7.77161 15.1958 7.78868C15.1147 7.80588 15.0593 7.88121 15.0672 7.96375C15.178 9.12738 15.3859 11.3749 15.3923 11.6852C15.3919 11.6823 15.3914 11.6796 15.391 11.6768C15.3783 11.5876 15.2951 11.5264 15.2064 11.5384C15.1172 11.5513 15.0554 11.6338 15.0681 11.723C15.1157 12.0564 15.2374 12.6296 15.5177 12.723C15.5399 12.7305 15.5697 12.7372 15.6046 12.7372C15.6689 12.7372 15.7506 12.7144 15.8342 12.6308C16.0118 12.4532 16.1321 12.1145 16.2382 11.8158C16.2621 11.7483 16.2905 11.6683 16.3172 11.5998C16.4669 11.8184 16.7279 12.0904 16.9925 12.0692C17.0855 12.0625 17.2546 12.0125 17.3416 11.7515C17.4284 11.4913 17.3941 10.5839 17.3356 9.71509C17.4731 9.9077 17.6106 10.105 17.7419 10.2997C17.7928 10.7882 17.8291 11.2776 17.8291 11.6795C17.8294 11.7695 17.9024 11.8425 17.9924 11.8425Z" fill="white"/>
<path d="M19.2289 10.9857C19.1134 10.1249 18.9524 9.12775 18.8504 8.51576C18.8965 8.5271 18.9466 8.51782 18.9871 8.48674C19.0588 8.43213 19.0725 8.32966 19.0178 8.25818L18.7222 7.87076C18.6765 7.81118 18.5961 7.79018 18.5272 7.82027C18.4583 7.85037 18.4189 7.92368 18.4318 7.99774C18.4347 8.01443 18.7256 9.68889 18.9055 11.029C18.9742 11.5412 18.8739 11.9988 18.6369 12.253C18.4846 12.4164 18.2828 12.4902 18.0386 12.476C17.949 12.4712 17.8712 12.5387 17.8656 12.6286C17.8599 12.7185 17.9281 12.7959 18.0181 12.8016C18.0457 12.8034 18.0728 12.8041 18.0997 12.8041C18.4073 12.8041 18.6742 12.6914 18.8755 12.4753C19.183 12.1457 19.3118 11.6027 19.2289 10.9857Z" fill="white"/>
<path d="M17.4355 12.0611C17.3755 12.1263 17.3801 12.2288 17.4436 12.2904C17.4524 12.299 17.463 12.3159 17.4631 12.3242C17.4632 12.3288 17.4565 12.3425 17.4384 12.3606C17.3747 12.4243 17.3747 12.5276 17.4384 12.5913C17.4703 12.6231 17.512 12.6391 17.5538 12.6391C17.5955 12.6391 17.6372 12.6231 17.6691 12.5913C17.7726 12.4879 17.7916 12.3829 17.7892 12.313C17.7842 12.1625 17.6817 12.0653 17.6612 12.0473C17.5945 11.9893 17.4954 11.9963 17.4355 12.0611Z" fill="white"/>
<path d="M16.8611 15.6368H16.698H15.7193V15.4737C15.7193 15.3835 15.6463 15.3105 15.5562 15.3105C15.4661 15.3105 15.3931 15.3835 15.3931 15.4737V15.6368H6.74805C7.07425 15.963 7.7267 16.1262 8.21608 16.1262C8.56703 16.1262 12.9448 16.1262 15.3931 16.1262V16.4524C15.3931 16.5425 15.4661 16.6155 15.5562 16.6155H16.8611C17.131 16.6155 17.3505 16.396 17.3505 16.1261C17.3505 15.8563 17.131 15.6368 16.8611 15.6368ZM16.8611 16.2892H15.7193V16.1261C16.5054 16.1261 17.0242 16.1261 17.0242 16.1261L16.9949 16.0383C17.0119 16.064 17.0242 16.093 17.0242 16.1261C17.0242 16.2162 16.951 16.2892 16.8611 16.2892Z" fill="white"/>
</g>
<defs>
<clipPath id="clip0_1816_60671">
<rect width="24" height="24" fill="white"/>
</clipPath>
</defs>
</svg>
