<svg width="49" height="48" viewBox="0 0 49 48" fill="none" xmlns="http://www.w3.org/2000/svg">
<path d="M0.5 10C0.5 4.47715 4.97715 0 10.5 0H38.5C44.0229 0 48.5 4.47715 48.5 10V38C48.5 43.5229 44.0228 48 38.5 48H10.5C4.97715 48 0.5 43.5228 0.5 38V10Z" fill="#F8F9FA"/>
<g clip-path="url(#clip0_578_2722)">
<path d="M37.0458 38.8564H11.9029C10.6405 38.8564 9.61719 37.8331 9.61719 36.5707L9.61719 11.4279C9.61719 10.1655 10.6405 9.14216 11.9029 9.14216L37.0458 9.14216C38.3081 9.14216 39.3315 10.1655 39.3315 11.4279V36.5707C39.3315 37.8331 38.3081 38.8564 37.0458 38.8564Z" stroke="#767676" stroke-width="1.5" stroke-linecap="round" stroke-linejoin="round"/>
<path d="M19.3555 22.8564C17.1463 22.8564 15.3555 21.0656 15.3555 18.8564C15.3555 16.6473 17.1463 14.8564 19.3555 14.8564C21.5646 14.8564 23.3555 16.6473 23.3555 18.8564C23.3555 21.0656 21.5646 22.8564 19.3555 22.8564Z" stroke="#767676" stroke-width="1.5" stroke-linecap="round" stroke-linejoin="round"/>
<path d="M19.0126 38.8563C19.7486 34.9363 21.8534 31.4053 24.9515 28.8933C28.0496 26.3813 31.9394 25.0518 35.9269 25.142C37.0774 25.1389 38.2255 25.2461 39.3555 25.462" stroke="#767676" stroke-width="1.5" stroke-linecap="round" stroke-linejoin="round"/>
<path d="M9.63924 30.6511C11.4802 30.0294 13.4104 29.7128 15.3535 29.7139C17.8131 29.7086 20.2478 30.2064 22.5078 31.1768" stroke="#767676" stroke-width="1.5" stroke-linecap="round" stroke-linejoin="round"/>
</g>
<defs>
<clipPath id="clip0_578_2722">
<rect width="32" height="32" fill="white" transform="matrix(-1 0 0 1 40.5 8)"/>
</clipPath>
</defs>
</svg>
