<svg width="48" height="48" viewBox="0 0 48 48" fill="none" xmlns="http://www.w3.org/2000/svg">
<path d="M0 10C0 4.47715 4.47715 0 10 0H38C43.5229 0 48 4.47715 48 10V38C48 43.5229 43.5228 48 38 48H10C4.47715 48 0 43.5228 0 38V10Z" fill="#F8F9FA"/>
<g clip-path="url(#clip0_2424_14302)">
<path d="M36.5487 38.8574H11.4058C10.1435 38.8574 9.12012 37.8341 9.12012 36.5717L9.12012 11.4288C9.12012 10.1665 10.1435 9.14314 11.4058 9.14314L36.5487 9.14314C37.8111 9.14314 38.8344 10.1665 38.8344 11.4288V36.5717C38.8344 37.8341 37.8111 38.8574 36.5487 38.8574Z" stroke="#696969" stroke-width="1.5" stroke-linecap="round" stroke-linejoin="round"/>
<path d="M18.8574 22.8574C16.6483 22.8574 14.8574 21.0666 14.8574 18.8574C14.8574 16.6483 16.6483 14.8574 18.8574 14.8574C21.0666 14.8574 22.8574 16.6483 22.8574 18.8574C22.8574 21.0666 21.0666 22.8574 18.8574 22.8574Z" stroke="#696969" stroke-width="1.5" stroke-linecap="round" stroke-linejoin="round"/>
<path d="M18.5146 38.8573C19.2506 34.9373 21.3554 31.4062 24.4535 28.8943C27.5516 26.3823 31.4414 25.0528 35.4289 25.143C36.5793 25.1399 37.7274 25.2471 38.8574 25.463" stroke="#696969" stroke-width="1.5" stroke-linecap="round" stroke-linejoin="round"/>
<path d="M9.14315 30.6501C10.9841 30.0284 12.9143 29.7118 14.8574 29.7129C17.317 29.7076 19.7517 30.2054 22.0117 31.1758" stroke="#696969" stroke-width="1.5" stroke-linecap="round" stroke-linejoin="round"/>
</g>
<defs>
<clipPath id="clip0_2424_14302">
<rect width="32" height="32" fill="white" transform="matrix(-1 0 0 1 40 8)"/>
</clipPath>
</defs>
</svg>
