<svg width="16" height="14" viewBox="0 0 16 14" fill="none" xmlns="http://www.w3.org/2000/svg">
<path d="M15.4275 4.7147C15.4275 4.4116 15.307 4.12091 15.0927 3.90658C14.8784 3.69226 14.5877 3.57185 14.2846 3.57185H11.9989L10.2846 1.28613H5.71317L3.99888 3.57185H1.71317C1.41007 3.57185 1.11937 3.69226 0.905048 3.90658C0.69072 4.12091 0.570313 4.4116 0.570312 4.7147V11.5718C0.570313 11.875 0.69072 12.1656 0.905048 12.38C1.11937 12.5943 1.41007 12.7147 1.71317 12.7147H14.2846C14.5877 12.7147 14.8784 12.5943 15.0927 12.38C15.307 12.1656 15.4275 11.875 15.4275 11.5718V4.7147Z" stroke="#767676" stroke-linecap="round" stroke-linejoin="round"/>
<path d="M7.99721 10.1429C9.41737 10.1429 10.5686 8.99159 10.5686 7.57143C10.5686 6.15127 9.41737 5 7.99721 5C6.57705 5 5.42578 6.15127 5.42578 7.57143C5.42578 8.99159 6.57705 10.1429 7.99721 10.1429Z" stroke="#767676" stroke-linecap="round" stroke-linejoin="round"/>
</svg>
