<svg width="80" height="76" viewBox="0 0 80 76" fill="none" xmlns="http://www.w3.org/2000/svg">
<path d="M45.8372 67.5386C62.2674 63.096 71.9854 46.175 67.543 29.7444C63.1005 13.3138 46.1799 3.59556 29.7496 8.0381C13.3194 12.4806 3.60132 29.4017 8.04377 45.8323C12.4862 62.2629 29.4069 71.9811 45.8372 67.5386Z" fill="#83A58F"/>
<path d="M29.4286 29.186H34.3104C34.3104 29.186 34.3104 25.0875 38.5695 25.014C40.7817 24.9755 41.9285 26.4246 42.395 27.5353C42.9361 28.8248 42.772 30.2932 42.0474 31.4888C41.2198 32.8542 39.405 34.095 36.115 33.5153V44.5222H40.9424V38.0746C40.9424 38.0746 47.7126 36.3242 47.7126 28.8633C47.7126 21.725 41.3115 20.0664 38.5706 20.0664C36.475 20.0664 29.3369 20.5736 29.4286 29.186Z" fill="white"/>
<path d="M41.0003 46.7891H36.1016V51.3641H41.0003V46.7891Z" fill="white"/>
<path d="M79.9466 52.2312C79.9466 54.2985 78.2711 55.9741 76.2038 55.9741C74.1365 55.9741 72.4609 54.2985 72.4609 52.2312C72.4609 50.1639 74.1365 48.4883 76.2038 48.4883C78.2711 48.4883 79.9466 50.1639 79.9466 52.2312Z" fill="#83A58F"/>
</svg>
