<svg width="24" height="24" viewBox="0 0 24 24" fill="none" xmlns="http://www.w3.org/2000/svg">
<path d="M6.42578 7.71484L6.85435 9.42913" stroke="#212121" stroke-linecap="round" stroke-linejoin="round"/>
<path d="M12.4286 7.71484L12 9.42913" stroke="#212121" stroke-linecap="round" stroke-linejoin="round"/>
<path d="M3.11909 12.8576H17.1419L18.8562 4.28613H1.71338C1.58801 4.28659 1.46427 4.31455 1.35089 4.36802C1.2375 4.4215 1.13722 4.4992 1.05713 4.59564C0.977031 4.69208 0.919066 4.80492 0.887317 4.9262C0.855568 5.04748 0.85081 5.17424 0.873376 5.29756L2.27909 12.1547C2.31188 12.353 2.41466 12.5329 2.56879 12.6619C2.72291 12.7908 2.91815 12.8603 3.11909 12.8576V12.8576Z" stroke="#212121" stroke-linecap="round" stroke-linejoin="round"/>
<path d="M18.8555 4.28599L19.5755 1.54314C19.615 1.34953 19.7202 1.17553 19.8733 1.05057C20.0263 0.925613 20.2179 0.857382 20.4155 0.857422H23.1412" stroke="#212121" stroke-linecap="round" stroke-linejoin="round"/>
<path d="M17.1406 12.8574L16.4206 16.4574C16.3811 16.651 16.2759 16.825 16.1228 16.95C15.9698 17.0749 15.7782 17.1432 15.5806 17.1431H5.14062" stroke="#212121" stroke-linecap="round" stroke-linejoin="round"/>
<path d="M5.99777 23.143C6.47115 23.143 6.85491 22.7592 6.85491 22.2859C6.85491 21.8125 6.47115 21.4287 5.99777 21.4287C5.52438 21.4287 5.14062 21.8125 5.14062 22.2859C5.14062 22.7592 5.52438 23.143 5.99777 23.143Z" fill="#212121" stroke="#212121" stroke-linecap="round" stroke-linejoin="round"/>
<path d="M14.572 23.143C15.0454 23.143 15.4291 22.7592 15.4291 22.2859C15.4291 21.8125 15.0454 21.4287 14.572 21.4287C14.0986 21.4287 13.7148 21.8125 13.7148 22.2859C13.7148 22.7592 14.0986 23.143 14.572 23.143Z" fill="#212121" stroke="#212121" stroke-linecap="round" stroke-linejoin="round"/>
</svg>
