<svg width="64" height="65" viewBox="0 0 64 65" fill="none" xmlns="http://www.w3.org/2000/svg">
<g opacity="0.5">
<path d="M0.39675 55.9524L10.2949 55.3723C14.4669 59.2558 19.7294 62.0716 25.7288 63.2721C42.9804 66.7246 59.7651 55.5378 63.2176 38.2862C66.6701 21.0346 55.4832 4.24992 38.2316 0.797428C20.98 -2.65507 4.19536 8.53071 0.742862 25.7834C-0.698217 32.9866 0.419594 40.1049 3.45849 46.2088L3.44653 46.1958L0.39675 55.9524Z" fill="#185D31"/>
</g>
<path d="M22.2293 25.9667H26.7659C26.7659 25.9667 26.7659 22.1583 30.7245 22.0897C32.7806 22.0538 33.8461 23.4013 34.2793 24.432C34.7822 25.6304 34.6298 26.9953 33.9561 28.1065C33.1865 29.3756 31.5006 30.5283 28.4432 29.9895V40.2175H32.9286V34.2257C32.9286 34.2257 39.2197 32.5996 39.2197 25.6663C39.2197 19.0323 33.2714 17.4922 30.7245 17.4922C28.7773 17.4933 22.1434 17.9635 22.2293 25.9667Z" fill="white"/>
<path d="M32.9815 42.3242H28.4297V46.5756H32.9815V42.3242Z" fill="white"/>
</svg>
