<svg width="200" height="198" viewBox="0 0 200 198" fill="none" xmlns="http://www.w3.org/2000/svg">
<path d="M100 197.801C155.228 197.801 200 153.522 200 98.9004C200 44.2792 155.228 0 100 0C44.7715 0 0 44.2792 0 98.9004C0 153.522 44.7715 197.801 100 197.801Z" fill="#F8F9FA"/>
<path d="M66.582 53.7482L13.2845 92.9307L27.4955 59.5955L80.8711 25.7157L66.582 53.7482Z" fill="#EDEDED"/>
<path d="M26.582 60.2853L80.8379 26.3223V118.949L31.1034 153.816L26.582 60.2853Z" fill="#B0B0B0"/>
<path d="M80.8711 26.3223L164.082 45.7839V138.443L80.8711 118.982V26.3223Z" fill="#EDEDED"/>
<path d="M26.582 60.2822L111.603 80.1455V172.805L31.1044 154.326L26.582 60.2822Z" fill="#EDEDED"/>
<path d="M109.773 80.1759L164.029 46.2129V138.839L109.773 172.802V80.1759Z" fill="#B0B0B0"/>
<mask id="mask0_1182_143983" style="mask-type:luminance" maskUnits="userSpaceOnUse" x="109" y="46" width="56" height="127">
<path d="M109.773 80.1759L164.029 46.2129V138.839L109.773 172.802V80.1759Z" fill="white"/>
</mask>
<g mask="url(#mask0_1182_143983)">
<rect x="130.078" y="38.4951" width="17.053" height="142.027" fill="#B0B0B0"/>
</g>
<path d="M134.174 107.699L187.551 73.8193L163.15 46.2129L109.773 80.0926L134.174 107.699Z" fill="#EDEDED"/>
</svg>
