<svg width="236" height="248" viewBox="0 0 236 248" fill="none" xmlns="http://www.w3.org/2000/svg">
<path d="M118 235.5C182.893 235.5 235.5 182.893 235.5 118C235.5 53.1065 182.893 0.5 118 0.5C53.1065 0.5 0.5 53.1065 0.5 118C0.5 182.893 53.1065 235.5 118 235.5Z" fill="#F8F9FA"/>
<path d="M181.572 6.5H54.3489C49.6151 6.5 45.0751 8.51059 41.7278 12.0895C38.3805 15.6683 36.5 20.5223 36.5 25.5836V180.585H36.7182V235.015C36.718 237.117 37.2216 239.184 38.1809 241.018C39.1401 242.852 40.5231 244.393 42.1978 245.494C43.8725 246.594 45.783 247.218 47.747 247.304C49.7111 247.391 51.6631 246.938 53.4168 245.988L112.1 214.182C113.699 213.325 115.463 212.879 117.251 212.879C119.04 212.879 120.804 213.325 122.403 214.182L182.891 246.222C184.646 247.151 186.593 247.586 188.55 247.486C190.506 247.385 192.406 246.752 194.069 245.647C195.733 244.542 197.104 243.001 198.055 241.17C199.005 239.339 199.503 237.279 199.5 235.185L199.341 180.585V25.5306C199.328 20.4931 197.453 15.6655 194.124 12.1006C190.795 8.53556 186.283 6.52237 181.572 6.5Z" fill="#EDEDED"/>
<circle cx="118" cy="88" r="57.5" fill="#185D31"/>
<path fill-rule="evenodd" clip-rule="evenodd" d="M117.5 41.5C99.8706 41.5 84.7146 52.1098 78.0774 67.3007C77.6351 68.3129 76.4561 68.7749 75.4439 68.3327C74.4317 67.8905 73.9697 66.7114 74.4119 65.6993C81.6627 49.1039 98.2241 37.5 117.5 37.5C118.605 37.5 119.5 38.3954 119.5 39.5C119.5 40.6046 118.605 41.5 117.5 41.5Z" fill="white"/>
<path d="M120.982 55.4218L129.069 72.5614C129.309 73.0695 129.663 73.5091 130.101 73.8423C130.539 74.1756 131.048 74.3924 131.585 74.4743L149.661 77.2012C150.274 77.2993 150.848 77.5732 151.32 77.9924C151.792 78.4116 152.143 78.9596 152.335 79.5755C152.527 80.1914 152.552 80.8509 152.407 81.4806C152.262 82.1103 151.952 82.6855 151.513 83.1421L138.451 96.4795C138.062 96.8749 137.772 97.3634 137.605 97.9028C137.437 98.4421 137.398 99.016 137.491 99.5747L140.58 118.407C140.686 119.051 140.618 119.713 140.383 120.319C140.147 120.924 139.755 121.448 139.25 121.832C138.744 122.216 138.146 122.444 137.523 122.491C136.9 122.538 136.277 122.401 135.725 122.097L119.556 113.185C119.076 112.922 118.542 112.784 118 112.784C117.458 112.784 116.924 112.922 116.444 113.185L100.275 122.097C99.7229 122.4 99.1005 122.535 98.4785 122.487C97.8565 122.44 97.2596 122.211 96.7551 121.827C96.2507 121.444 95.8589 120.92 95.6239 120.316C95.3889 119.711 95.3201 119.05 95.4253 118.407L98.5091 99.5747C98.6017 99.016 98.5627 98.4421 98.3954 97.9028C98.2282 97.3634 97.9377 96.8749 97.5493 96.4795L84.4872 83.1421C84.0479 82.6855 83.7385 82.1103 83.5933 81.4806C83.4481 80.8509 83.4728 80.1914 83.6647 79.5755C83.8567 78.9596 84.2082 78.4116 84.6803 77.9924C85.1524 77.5732 85.7265 77.2993 86.3386 77.2012L104.415 74.4565C104.952 74.3746 105.461 74.1577 105.899 73.8245C106.337 73.4913 106.691 73.0517 106.931 72.5435L115.018 55.404C115.3 54.8292 115.728 54.3472 116.255 54.0111C116.782 53.6751 117.388 53.4982 118.005 53.5C118.623 53.5019 119.227 53.6824 119.753 54.0216C120.278 54.3608 120.703 54.8454 120.982 55.4218Z" fill="white"/>
</svg>
