<svg width="200" height="198" viewBox="0 0 200 198" fill="none" xmlns="http://www.w3.org/2000/svg">
<path d="M100 197.801C155.228 197.801 200 153.522 200 98.9004C200 44.2792 155.228 0 100 0C44.7715 0 0 44.2792 0 98.9004C0 153.522 44.7715 197.801 100 197.801Z" fill="#F8F9FA"/>
<path d="M102.613 137.536C115.07 137.536 125.169 147.634 125.169 160.091C125.169 172.548 115.07 182.646 102.613 182.646C90.1566 182.646 80.0586 172.548 80.0586 160.091C80.0588 147.634 90.1568 137.536 102.613 137.536Z" fill="#B0B0B0" stroke="#B0B0B0"/>
<path d="M78.8558 16.157C80.1305 15.8727 81.4487 15.8424 82.7351 16.0676C84.0215 16.2928 85.251 16.7692 86.3533 17.4695C87.4556 18.1699 88.4092 19.0805 89.1596 20.1494C89.91 21.2183 90.4425 22.4245 90.7267 23.6992L94.411 40.2223L74.958 44.5598L71.2737 28.0367C70.9888 26.7587 70.959 25.4369 71.1861 24.1474C71.4132 22.8578 71.8928 21.6257 72.5972 20.522C73.3017 19.4182 74.2172 18.4644 75.2912 17.7153C76.3652 16.9663 77.5766 16.4367 78.8558 16.157Z" fill="white" stroke="#B0B0B0" stroke-linecap="round" stroke-linejoin="round"/>
<path d="M169.671 145.774L51.4548 172.117C50.7206 172.282 49.956 172.252 49.2366 172.031C48.5172 171.811 47.8677 171.406 47.3524 170.858C46.837 170.309 46.4734 169.636 46.2976 168.904C46.1218 168.173 46.1397 167.408 46.3496 166.685L46.8397 164.99C50.9239 150.512 54.4771 134.563 51.2098 119.861L44.2259 88.4944C38.3447 62.1313 54.1504 35.2782 80.3707 28.8048C86.7644 27.2176 93.4111 26.9253 99.9195 27.9451C106.428 28.9649 112.667 31.2763 118.268 34.7431C123.87 38.21 128.722 42.7623 132.538 48.1321C136.354 53.502 139.058 59.581 140.49 66.0113L147.698 98.4393C150.986 113.142 160.91 126.13 170.835 137.443L171.999 138.77C172.47 139.339 172.789 140.018 172.925 140.743C173.062 141.469 173.011 142.217 172.778 142.918C172.545 143.619 172.138 144.249 171.594 144.748C171.051 145.248 170.389 145.601 169.671 145.774Z" fill="white" stroke="#B0B0B0" stroke-linecap="round" stroke-linejoin="round"/>
<path d="M168.81 54.4319C168.805 60.6423 166.335 66.5968 161.944 70.9882C157.552 75.3797 151.598 77.8491 145.387 77.8545C144.623 77.8544 143.86 77.8135 143.1 77.732L136.157 89.0656L133.993 74.8731C130.385 72.8645 127.373 69.9381 125.261 66.3903C123.149 62.8426 122.013 58.7996 121.966 54.6711C121.92 50.5425 122.966 46.4751 124.998 42.881C127.03 39.2869 129.976 36.2938 133.538 34.205C137.099 32.1162 141.149 31.0059 145.278 30.9866C149.407 30.9673 153.467 32.0397 157.048 34.0952C160.629 36.1506 163.603 39.1161 165.668 42.6911C167.734 46.2661 168.818 50.3235 168.81 54.4523V54.4319Z" fill="white" stroke="#B0B0B0" stroke-linecap="round" stroke-linejoin="round"/>
<path d="M135.455 56.8021C136.763 56.8021 137.824 55.7415 137.824 54.4333C137.824 53.125 136.763 52.0645 135.455 52.0645C134.146 52.0645 133.086 53.125 133.086 54.4333C133.086 55.7415 134.146 56.8021 135.455 56.8021Z" fill="#B0B0B0" stroke="#B0B0B0" stroke-miterlimit="10"/>
<path d="M145.384 56.8011C146.693 56.8011 147.753 55.7406 147.753 54.4323C147.753 53.124 146.693 52.0635 145.384 52.0635C144.076 52.0635 143.016 53.124 143.016 54.4323C143.016 55.7406 144.076 56.8011 145.384 56.8011Z" fill="#B0B0B0" stroke="#B0B0B0" stroke-miterlimit="10"/>
<path d="M155.322 56.8021C156.63 56.8021 157.691 55.7415 157.691 54.4333C157.691 53.125 156.63 52.0645 155.322 52.0645C154.014 52.0645 152.953 53.125 152.953 54.4333C152.953 55.7415 154.014 56.8021 155.322 56.8021Z" fill="#B0B0B0" stroke="#B0B0B0" stroke-miterlimit="10"/>
</svg>
