<svg width="16" height="17" viewBox="0 0 16 17" fill="none" xmlns="http://www.w3.org/2000/svg">
<path d="M15.4284 6.21422C15.4284 5.91111 15.308 5.62042 15.0937 5.40609C14.8794 5.19177 14.5887 5.07136 14.2856 5.07136H11.9999L10.2856 2.78564H5.71415L3.99986 5.07136H1.71415C1.41104 5.07136 1.12035 5.19177 0.906024 5.40609C0.691697 5.62042 0.571289 5.91111 0.571289 6.21422V13.0714C0.571289 13.3745 0.691697 13.6652 0.906024 13.8795C1.12035 14.0938 1.41104 14.2142 1.71415 14.2142H14.2856C14.5887 14.2142 14.8794 14.0938 15.0937 13.8795C15.308 13.6652 15.4284 13.3745 15.4284 13.0714V6.21422Z" stroke="white" stroke-linecap="round" stroke-linejoin="round"/>
<path d="M7.99965 11.6429C9.41981 11.6429 10.5711 10.4916 10.5711 9.07143C10.5711 7.65127 9.41981 6.5 7.99965 6.5C6.57949 6.5 5.42822 7.65127 5.42822 9.07143C5.42822 10.4916 6.57949 11.6429 7.99965 11.6429Z" stroke="white" stroke-linecap="round" stroke-linejoin="round"/>
</svg>
