<svg width="24" height="24" viewBox="0 0 24 24" fill="none" xmlns="http://www.w3.org/2000/svg">
<g clip-path="url(#clip0_2363_19968)">
<path d="M12 23.1431C18.1541 23.1431 23.1429 18.1543 23.1429 12.0003C23.1429 5.84625 18.1541 0.857422 12 0.857422C5.846 0.857422 0.857178 5.84625 0.857178 12.0003C0.857178 18.1543 5.846 23.1431 12 23.1431Z" stroke="#185D31" stroke-linecap="round" stroke-linejoin="round"/>
<path d="M4.68005 20.401C5.44504 19.1453 6.52018 18.1075 7.80212 17.3874C9.08406 16.6673 10.5297 16.2891 12.0001 16.2891C13.4704 16.2891 14.916 16.6673 16.198 17.3874C17.4799 18.1075 18.5551 19.1453 19.3201 20.401" stroke="#185D31" stroke-linecap="round" stroke-linejoin="round"/>
<path d="M12.0001 13.714C14.367 13.714 16.2858 11.7952 16.2858 9.42829C16.2858 7.06136 14.367 5.14258 12.0001 5.14258C9.63313 5.14258 7.71436 7.06136 7.71436 9.42829C7.71436 11.7952 9.63313 13.714 12.0001 13.714Z" stroke="#185D31" stroke-linecap="round" stroke-linejoin="round"/>
</g>
<defs>
<clipPath id="clip0_2363_19968">
<rect width="24" height="24" fill="white"/>
</clipPath>
</defs>
</svg>
