<svg width="24" height="25" viewBox="0 0 24 25" fill="none" xmlns="http://www.w3.org/2000/svg">
<g clip-path="url(#clip0_670_14581)">
<path d="M11.9998 23.6431C18.1538 23.6431 23.1426 18.6543 23.1426 12.5003C23.1426 6.34625 18.1538 1.35742 11.9998 1.35742C5.84576 1.35742 0.856934 6.34625 0.856934 12.5003C0.856934 18.6543 5.84576 23.6431 11.9998 23.6431Z" stroke="#767676" stroke-linecap="round" stroke-linejoin="round"/>
<path d="M4.67969 20.9C5.44467 19.6443 6.51982 18.6066 7.80176 17.8864C9.0837 17.1663 10.5293 16.7881 11.9997 16.7881C13.47 16.7881 14.9157 17.1663 16.1976 17.8864C17.4796 18.6066 18.5547 19.6443 19.3197 20.9" stroke="#767676" stroke-linecap="round" stroke-linejoin="round"/>
<path d="M11.9996 14.214C14.3665 14.214 16.2853 12.2952 16.2853 9.92829C16.2853 7.56136 14.3665 5.64258 11.9996 5.64258C9.63265 5.64258 7.71387 7.56136 7.71387 9.92829C7.71387 12.2952 9.63265 14.214 11.9996 14.214Z" stroke="#767676" stroke-linecap="round" stroke-linejoin="round"/>
</g>
<defs>
<clipPath id="clip0_670_14581">
<rect width="24" height="24" fill="white" transform="translate(0 0.5)"/>
</clipPath>
</defs>
</svg>
