<svg width="24" height="24" viewBox="0 0 24 24" fill="none" xmlns="http://www.w3.org/2000/svg">
<g clip-path="url(#clip0_850_23863)">
<path d="M12.0003 0.857422C13.9508 0.857422 15.8213 1.63225 17.2005 3.01144C18.5797 4.39064 19.3546 6.26123 19.3546 8.21171C19.3546 16.3888 22.3374 18.0003 23.1431 18.0003H0.857422C1.68028 18.0003 4.64599 16.3717 4.64599 8.21171C4.64599 6.26123 5.42082 4.39064 6.80001 3.01144C8.17921 1.63225 10.0498 0.857422 12.0003 0.857422V0.857422Z" stroke="#212121" stroke-linecap="round" stroke-linejoin="round"/>
<path d="M9.42969 21.1377C9.57787 21.7069 9.91072 22.2108 10.3761 22.5705C10.8414 22.9302 11.413 23.1254 12.0011 23.1254C12.5893 23.1254 13.1608 22.9302 13.6262 22.5705C14.0915 22.2108 14.4244 21.7069 14.5725 21.1377" stroke="#212121" stroke-linecap="round" stroke-linejoin="round"/>
</g>
<defs>
<clipPath id="clip0_850_23863">
<rect width="24" height="24" fill="white"/>
</clipPath>
</defs>
</svg>
