<svg width="24" height="24" viewBox="0 0 24 24" fill="none" xmlns="http://www.w3.org/2000/svg">
<g clip-path="url(#clip0_1876_56414)">
<path d="M22.3216 11.8996C22.3059 13.6478 21.8065 15.3575 20.8789 16.8394C19.9512 18.3212 18.6315 19.5174 17.0659 20.2953L12.2467 22.9148L7.42761 20.3961C5.84673 19.6105 4.5169 18.3986 3.58822 16.8973C2.65954 15.396 2.16898 13.665 2.17189 11.8996V2.76508C2.17189 2.31974 2.3488 1.89265 2.6637 1.57775C2.9786 1.26285 3.40569 1.08594 3.85103 1.08594H20.6425C21.0878 1.08594 21.5149 1.26285 21.8298 1.57775C22.1447 1.89265 22.3216 2.31974 22.3216 2.76508V11.8996Z" stroke="#212121" stroke-width="0.731884" stroke-linecap="round" stroke-linejoin="round"/>
<path d="M9.72718 13.6798C9.72718 14.3478 9.99254 14.9885 10.4649 15.4608C10.9372 15.9332 11.5779 16.1985 12.2459 16.1985C12.5831 16.2236 12.9217 16.1757 13.2387 16.058C13.5556 15.9402 13.8435 15.7556 14.0826 15.5165C14.3216 15.2774 14.5063 14.9895 14.624 14.6726C14.7417 14.3556 14.7897 14.017 14.7646 13.6798C14.7646 11.1611 9.72718 11.1611 9.72718 8.64238C9.7021 8.3052 9.75005 7.96657 9.86775 7.64961C9.98546 7.33265 10.1702 7.0448 10.4092 6.80572C10.6483 6.56664 10.9362 6.38194 11.2531 6.26424C11.5701 6.14653 11.9087 6.09858 12.2459 6.12367C12.9139 6.12367 13.5545 6.38903 14.0269 6.86138C14.4992 7.33373 14.7646 7.97438 14.7646 8.64238" stroke="#212121" stroke-width="0.731884" stroke-linecap="round" stroke-linejoin="round"/>
<path d="M12.2461 6.1225V4.44336" stroke="#212121" stroke-width="0.731884" stroke-linecap="round" stroke-linejoin="round"/>
<path d="M12.2461 17.8784V16.1992" stroke="#212121" stroke-width="0.731884" stroke-linecap="round" stroke-linejoin="round"/>
</g>
<defs>
<clipPath id="clip0_1876_56414">
<rect width="23.508" height="23.508" fill="white" transform="translate(0.492188 0.246094)"/>
</clipPath>
</defs>
</svg>
