<svg width="24" height="25" viewBox="0 0 24 25" fill="none" xmlns="http://www.w3.org/2000/svg">
<g clip-path="url(#clip0_670_14621)">
<path d="M18.8573 9.92871H5.143C4.19622 9.92871 3.42871 10.6962 3.42871 11.643V21.9287C3.42871 22.8755 4.19622 23.643 5.143 23.643H18.8573C19.8041 23.643 20.5716 22.8755 20.5716 21.9287V11.643C20.5716 10.6962 19.8041 9.92871 18.8573 9.92871Z" stroke="#767676" stroke-linecap="round" stroke-linejoin="round"/>
<path d="M18 9.92885V7.35742C18 5.76612 17.3679 4.24 16.2426 3.11478C15.1174 1.98956 13.5913 1.35742 12 1.35742C10.4087 1.35742 8.88258 1.98956 7.75736 3.11478C6.63214 4.24 6 5.76612 6 7.35742V9.92885" stroke="#767676" stroke-linecap="round" stroke-linejoin="round"/>
<path d="M12.0002 17.643C12.4736 17.643 12.8574 17.2592 12.8574 16.7859C12.8574 16.3125 12.4736 15.9287 12.0002 15.9287C11.5268 15.9287 11.1431 16.3125 11.1431 16.7859C11.1431 17.2592 11.5268 17.643 12.0002 17.643Z" stroke="#767676" stroke-linecap="round" stroke-linejoin="round"/>
</g>
<defs>
<clipPath id="clip0_670_14621">
<rect width="24" height="24" fill="white" transform="translate(0 0.5)"/>
</clipPath>
</defs>
</svg>
