<svg width="16" height="16" viewBox="0 0 16 16" fill="none" xmlns="http://www.w3.org/2000/svg">
<g clip-path="url(#clip0_1935_75071)">
<path d="M3.85156 6.68628L6.75442 2.04628C6.86692 1.86289 7.025 1.71175 7.21327 1.60761C7.40153 1.50346 7.61356 1.44985 7.82871 1.452V1.452C7.99815 1.44588 8.16709 1.47379 8.32556 1.53409C8.48403 1.59438 8.62881 1.68582 8.75133 1.80302C8.87385 1.92022 8.97164 2.06079 9.03891 2.21642C9.10618 2.37206 9.14157 2.5396 9.14299 2.70914V6.03486H14.1601C14.3455 6.04087 14.5275 6.08605 14.6942 6.16744C14.8609 6.24883 15.0085 6.36457 15.1272 6.50707C15.2459 6.64956 15.3332 6.81557 15.3832 6.99419C15.4332 7.17281 15.4448 7.35999 15.4173 7.54343L14.503 13.4406C14.464 13.7557 14.3112 14.0458 14.0734 14.2562C13.8356 14.4667 13.5291 14.583 13.2116 14.5834H5.71442C5.35753 14.5848 5.00527 14.5026 4.68585 14.3434L3.86299 13.932" stroke="#185D31" stroke-linecap="round" stroke-linejoin="round"/>
<path d="M3.85156 6.68555V13.897" stroke="#185D31" stroke-linecap="round" stroke-linejoin="round"/>
<path d="M1.14369 6.68555H3.85227V13.897H1.14369C0.992142 13.897 0.846797 13.8368 0.739633 13.7296C0.63247 13.6224 0.572266 13.4771 0.572266 13.3255V7.25698C0.572266 7.10542 0.63247 6.96008 0.739633 6.85291C0.846797 6.74575 0.992142 6.68555 1.14369 6.68555V6.68555Z" stroke="#185D31" stroke-linecap="round" stroke-linejoin="round"/>
</g>
<defs>
<clipPath id="clip0_1935_75071">
<rect width="16" height="16" fill="white"/>
</clipPath>
</defs>
</svg>
