<svg width="16" height="16" viewBox="0 0 16 16" fill="none" xmlns="http://www.w3.org/2000/svg">
<g clip-path="url(#clip0_1876_56401)">
<path d="M8.24702 15.2011C12.2236 15.2011 15.4472 11.9775 15.4472 8.00093C15.4472 4.0244 12.2236 0.800781 8.24702 0.800781C4.27049 0.800781 1.04688 4.0244 1.04688 8.00093C1.04688 11.9775 4.27049 15.2011 8.24702 15.2011Z" stroke="#696969" stroke-width="0.731884" stroke-linecap="round" stroke-linejoin="round"/>
<path d="M8.24805 4.125V7.44814" stroke="#696969" stroke-width="0.731884" stroke-linecap="round" stroke-linejoin="round"/>
<path d="M8.24722 11.3245C8.5531 11.3245 8.80107 11.0765 8.80107 10.7707C8.80107 10.4648 8.5531 10.2168 8.24722 10.2168C7.94133 10.2168 7.69336 10.4648 7.69336 10.7707C7.69336 11.0765 7.94133 11.3245 8.24722 11.3245Z" stroke="#696969" stroke-width="0.731884" stroke-linecap="round" stroke-linejoin="round"/>
</g>
<defs>
<clipPath id="clip0_1876_56401">
<rect width="15.508" height="15.508" fill="white" transform="translate(0.492188 0.246094)"/>
</clipPath>
</defs>
</svg>
