<svg width="24" height="25" viewBox="0 0 24 25" fill="none" xmlns="http://www.w3.org/2000/svg">
<path d="M21.0687 9.75684C21.7202 10.3397 22.2687 10.9054 22.6802 11.3511C22.9645 11.6661 23.1218 12.0754 23.1218 12.4997C23.1218 12.924 22.9645 13.3333 22.6802 13.6483C20.8802 15.5854 16.783 19.3568 12.0002 19.3568H11.3145" stroke="#767676" stroke-linecap="round" stroke-linejoin="round"/>
<path d="M6.63437 17.8654C4.6486 16.7533 2.85433 15.3294 1.32008 13.6483C1.03579 13.3333 0.878418 12.924 0.878418 12.4997C0.878418 12.0754 1.03579 11.6662 1.32008 11.3511C3.12008 9.41401 7.21723 5.64258 12.0001 5.64258C13.8854 5.68198 15.7306 6.19485 17.3658 7.13401" stroke="#767676" stroke-linecap="round" stroke-linejoin="round"/>
<path d="M21.4284 3.07129L2.57129 21.9284" stroke="#767676" stroke-linecap="round" stroke-linejoin="round"/>
<path d="M9.58272 14.917C8.93885 14.277 8.57512 13.4077 8.57129 12.4999C8.57129 11.5905 8.93251 10.7185 9.57549 10.0755C10.2185 9.43251 11.0905 9.07129 11.9999 9.07129C12.9077 9.07512 13.777 9.43885 14.417 10.0827" stroke="#767676" stroke-linecap="round" stroke-linejoin="round"/>
<path d="M14.9829 14.2139C14.6778 14.7355 14.2401 15.1673 13.7144 15.4653" stroke="#767676" stroke-linecap="round" stroke-linejoin="round"/>
</svg>
