<svg width="42" height="14" viewBox="0 0 42 14" fill="none" xmlns="http://www.w3.org/2000/svg">
<path fill-rule="evenodd" clip-rule="evenodd" d="M18.2002 13.0452H14.7979L16.9259 0.230469H20.3281L18.2002 13.0452Z" fill="#0742A6"/>
<path fill-rule="evenodd" clip-rule="evenodd" d="M30.5347 0.545575C29.8636 0.286286 28.7992 0 27.4831 0C24.1231 0 21.7571 1.7449 21.7426 4.23957C21.7147 6.08014 23.4366 7.10244 24.7245 7.71614C26.0408 8.34325 26.4882 8.75257 26.4882 9.31155C26.4748 10.1701 25.4246 10.5658 24.445 10.5658C23.0867 10.5658 22.3588 10.3618 21.2527 9.88413L20.8047 9.67938L20.3286 12.556C21.1266 12.9101 22.5968 13.2243 24.1231 13.238C27.6931 13.238 30.0173 11.5201 30.0448 8.86165C30.0584 7.40286 29.1492 6.28507 27.1889 5.37167C25.9989 4.78533 25.2702 4.38997 25.2702 3.79003C25.2841 3.24464 25.8865 2.68602 27.2298 2.68602C28.3359 2.65866 29.1486 2.91758 29.7642 3.17669L30.072 3.31277L30.5347 0.545575Z" fill="#0742A6"/>
<path fill-rule="evenodd" clip-rule="evenodd" d="M36.624 0.230469H39.2557L42.0005 13.045H38.8503C38.8503 13.045 38.542 11.5727 38.4443 11.1228H34.076C33.9497 11.4634 33.362 13.045 33.362 13.045H29.792L34.8457 1.29371C35.1959 0.462035 35.8125 0.230469 36.624 0.230469ZM36.415 4.91995C36.415 4.91995 35.3368 7.76922 35.0566 8.50541H37.8846C37.7447 7.86471 37.1004 4.79728 37.1004 4.79728L36.8626 3.69309C36.7625 3.97742 36.6177 4.36833 36.5201 4.632C36.4538 4.81074 36.4093 4.931 36.415 4.91995Z" fill="#0742A6"/>
<path fill-rule="evenodd" clip-rule="evenodd" d="M11.9567 0.230469L8.6247 8.96891L8.2606 7.19665C7.64458 5.15169 5.71261 2.9299 3.55664 1.82516L6.60864 13.0316H10.2065L15.5544 0.230469H11.9567V0.230469Z" fill="#0742A6"/>
<path fill-rule="evenodd" clip-rule="evenodd" d="M5.53003 0.230469H0.0560017L0 0.489395C4.27008 1.55282 7.09807 4.11617 8.25997 7.19719L7.06998 1.30767C6.87407 0.489214 6.272 0.257467 5.53003 0.230469Z" fill="#0742A6"/>
</svg>
