<svg width="24" height="24" viewBox="0 0 24 24" fill="none" xmlns="http://www.w3.org/2000/svg">
<g clip-path="url(#clip0_2363_6359)">
<path d="M2.12561 11.2118L21.8399 2.24609" stroke="#185D31" stroke-linecap="round" stroke-linejoin="round"/>
<path d="M18.1542 0.857422L21.8399 2.24599L20.4685 5.93171" fill="#185D31"/>
<path d="M18.1542 0.857422L21.8399 2.24599L20.4685 5.93171" stroke="#185D31" stroke-linecap="round" stroke-linejoin="round"/>
<path d="M22.7142 23.1602H18.4285V11.1602C18.4285 10.9328 18.5188 10.7148 18.6796 10.5541C18.8403 10.3933 19.0583 10.303 19.2857 10.303H21.8571C22.0844 10.303 22.3024 10.3933 22.4632 10.5541C22.6239 10.7148 22.7142 10.9328 22.7142 11.1602V23.1602Z" stroke="#185D31" stroke-linecap="round" stroke-linejoin="round"/>
<path d="M14.1428 23.1602H9.85711V13.7316C9.85711 13.5043 9.94741 13.2862 10.1082 13.1255C10.2689 12.9647 10.4869 12.8744 10.7143 12.8744H13.2857C13.513 12.8744 13.731 12.9647 13.8918 13.1255C14.0525 13.2862 14.1428 13.5043 14.1428 13.7316L14.1428 23.1602Z" stroke="#185D31" stroke-linecap="round" stroke-linejoin="round"/>
<path d="M5.57141 23.1602H1.2857L1.2857 16.303C1.2857 16.0757 1.376 15.8577 1.53675 15.6969C1.69749 15.5362 1.91551 15.4459 2.14284 15.4459H4.71427C4.9416 15.4459 5.15961 15.5362 5.32036 15.6969C5.48111 15.8577 5.57141 16.0757 5.57141 16.303L5.57141 23.1602Z" stroke="#185D31" stroke-linecap="round" stroke-linejoin="round"/>
</g>
<defs>
<clipPath id="clip0_2363_6359">
<rect width="24" height="24" fill="white"/>
</clipPath>
</defs>
</svg>
