<svg width="24" height="24" viewBox="0 0 24 24" fill="none" xmlns="http://www.w3.org/2000/svg">
<g clip-path="url(#clip0_2363_46503)">
<path d="M15.0171 22.286C16.0728 22.9671 17.3308 23.2639 18.5796 23.1265C19.8284 22.9892 20.9918 22.426 21.8742 21.5318L22.6457 20.7775C22.9839 20.4315 23.1732 19.967 23.1732 19.4832C23.1732 18.9994 22.9839 18.5348 22.6457 18.1889L19.3714 14.9489C19.0284 14.6118 18.5666 14.4229 18.0857 14.4229C17.6047 14.4229 17.143 14.6118 16.8 14.9489V14.9489C16.454 15.2871 15.9895 15.4765 15.5057 15.4765C15.0219 15.4765 14.5573 15.2871 14.2114 14.9489L9.06853 9.80604C8.89697 9.63697 8.76073 9.43548 8.66774 9.21328C8.57475 8.99109 8.52686 8.75262 8.52686 8.51175C8.52686 8.27088 8.57475 8.03242 8.66774 7.81022C8.76073 7.58803 8.89697 7.38653 9.06853 7.21747V7.21747C9.40566 6.87443 9.59456 6.41271 9.59456 5.93175C9.59456 5.45079 9.40566 4.98907 9.06853 4.64604L5.81139 1.38889C5.46546 1.05069 5.00089 0.861328 4.5171 0.861328C4.03332 0.861328 3.56875 1.05069 3.22282 1.38889L2.46853 2.16032C1.57427 3.04274 1.01111 4.20615 0.873739 5.45495C0.736371 6.70375 1.03318 7.96176 1.71425 9.01747C5.2629 14.2473 9.77814 18.7509 15.0171 22.286V22.286Z" stroke="#185D31" stroke-linecap="round" stroke-linejoin="round"/>
</g>
<defs>
<clipPath id="clip0_2363_46503">
<rect width="24" height="24" fill="white"/>
</clipPath>
</defs>
</svg>
