<svg width="24" height="28" viewBox="0 0 24 28" fill="none" xmlns="http://www.w3.org/2000/svg">
<path d="M14.937 24.4197C14.5087 25.3756 14.2256 26.4129 14.1172 27.5008L23.1803 25.5615C23.6086 24.6058 23.8915 23.5683 24.0002 22.4805L14.937 24.4197Z" fill="#212121"/>
<path d="M23.1802 19.7509C23.6084 18.7952 23.8915 17.7577 24 16.6698L16.9401 18.1812V15.2758L23.18 13.941C23.6082 12.9853 23.8913 11.9478 23.9998 10.86L16.9399 12.3701V1.92114C15.8581 2.53254 14.8974 3.34637 14.1164 4.30633V12.9744L11.2929 13.5785V0.5C10.2111 1.11118 9.25038 1.92523 8.46941 2.88519V14.1823L2.15183 15.5336C1.72356 16.4893 1.44025 17.5269 1.33158 18.6147L8.46941 17.0878V20.7467L0.819827 22.383C0.391553 23.3386 0.108456 24.3762 0 25.464L8.00697 23.7513C8.65878 23.6148 9.21899 23.2269 9.58322 22.6931L11.0516 20.5017V20.5013C11.2041 20.2746 11.2929 20.0012 11.2929 19.7068V16.4837L14.1164 15.8796V21.6906L23.18 19.7504L23.1802 19.7509Z" fill="#212121"/>
</svg>
