<svg width="32" height="36" viewBox="0 0 32 36" fill="none" xmlns="http://www.w3.org/2000/svg">
<path d="M19.9173 31.8923C19.3463 33.1668 18.9688 34.5499 18.8242 36.0004L30.9084 33.4147C31.4794 32.1405 31.8566 30.7571 32.0015 29.3066L19.9173 31.8923Z" fill="#185D31"/>
<path d="M30.9069 25.6678C31.4779 24.3936 31.8554 23.0102 32 21.5598L22.5868 23.575V19.701L30.9066 17.9213C31.4776 16.6471 31.8551 15.2637 31.9997 13.8133L22.5865 15.8268V1.89486C21.1441 2.71005 19.8631 3.79516 18.8219 5.07511V16.6325L15.0572 17.438V0C13.6148 0.814906 12.3338 1.9003 11.2925 3.18025V18.2431L2.86911 20.0449C2.29808 21.3191 1.92033 22.7025 1.77544 24.1529L11.2925 22.1171V26.9956L1.0931 29.1773C0.52207 30.4515 0.144608 31.8349 0 33.2854L10.676 31.0017C11.545 30.8197 12.292 30.3025 12.7776 29.5908L14.7355 26.669V26.6684C14.9388 26.3661 15.0572 26.0016 15.0572 25.6091V21.3116L18.8219 20.5062V28.2541L30.9066 25.6673L30.9069 25.6678Z" fill="#185D31"/>
</svg>
