<svg width="24" height="24" viewBox="0 0 24 24" fill="none" xmlns="http://www.w3.org/2000/svg">
<path d="M12.1039 13.8596H11.1126C10.0221 13.8596 9.12993 13.0231 9.12993 12.0008V2.70703H18.052C19.539 2.70703 20.8376 3.4784 21.5117 4.61225" stroke="#696969" stroke-width="0.731884" stroke-linecap="round" stroke-linejoin="round"/>
<path d="M22.0176 16.6467C22.0176 18.1894 20.6892 19.4348 19.0436 19.4348H18.0522C18.0522 18.4125 17.16 17.5761 16.0696 17.5761C14.9791 17.5761 14.0869 18.4125 14.0869 19.4348H10.1215C10.1215 18.4125 9.22933 17.5761 8.13886 17.5761C7.04839 17.5761 6.15619 18.4125 6.15619 19.4348H5.16485C3.51923 19.4348 2.19084 18.1894 2.19084 16.6467V13.8585H5.16485C5.71009 13.8585 6.15619 13.4403 6.15619 12.9292V10.141C6.15619 9.62987 5.71009 9.21165 5.16485 9.21165H3.88605L5.5812 6.43282C5.93808 5.85661 6.59235 5.49414 7.30611 5.49414H9.1302V11.9998C9.1302 13.0221 10.0224 13.8585 11.1129 13.8585H12.1042" stroke="#696969" stroke-width="0.731884" stroke-linecap="round" stroke-linejoin="round"/>
<path d="M16.0701 21.2937C14.9751 21.2937 14.0874 20.4615 14.0874 19.4349C14.0874 18.4084 14.9751 17.5762 16.0701 17.5762C17.1651 17.5762 18.0527 18.4084 18.0527 19.4349C18.0527 20.4615 17.1651 21.2937 16.0701 21.2937Z" stroke="#696969" stroke-width="0.731884" stroke-linecap="round" stroke-linejoin="round"/>
<path d="M8.13842 21.2937C7.04342 21.2937 6.15575 20.4615 6.15575 19.4349C6.15575 18.4084 7.04342 17.5762 8.13842 17.5762C9.23342 17.5762 10.1211 18.4084 10.1211 19.4349C10.1211 20.4615 9.23342 21.2937 8.13842 21.2937Z" stroke="#696969" stroke-width="0.731884" stroke-linecap="round" stroke-linejoin="round"/>
<path d="M2.1909 12.001V13.8598H5.16491C5.71015 13.8598 6.15625 13.4416 6.15625 12.9304V10.1423C6.15625 9.63111 5.71015 9.21289 5.16491 9.21289H3.88611L2.1909 12.001Z" stroke="#696969" stroke-width="0.731884" stroke-linecap="round" stroke-linejoin="round"/>
<path d="M22.0176 8.2832H16.0696" stroke="#696969" stroke-width="0.731884" stroke-linecap="round" stroke-linejoin="round"/>
<path d="M22.0176 11.0703H18.0522" stroke="#696969" stroke-width="0.731884" stroke-linecap="round" stroke-linejoin="round"/>
<path d="M22.0176 13.8594H20.0349" stroke="#696969" stroke-width="0.731884" stroke-linecap="round" stroke-linejoin="round"/>
</svg>
