<svg width="72" height="72" viewBox="0 0 72 72" fill="none" xmlns="http://www.w3.org/2000/svg">
<path d="M30.8577 69.3775C33.698 69.3775 36.0006 67.075 36.0006 64.2347C36.0006 61.3943 33.698 59.0918 30.8577 59.0918C28.0174 59.0918 25.7148 61.3943 25.7148 64.2347C25.7148 67.075 28.0174 69.3775 30.8577 69.3775Z" stroke="#185D31" stroke-width="3" stroke-linecap="round" stroke-linejoin="round"/>
<path d="M53.9983 69.3775C56.8386 69.3775 59.1412 67.075 59.1412 64.2347C59.1412 61.3943 56.8386 59.0918 53.9983 59.0918C51.158 59.0918 48.8555 61.3943 48.8555 64.2347C48.8555 67.075 51.158 69.3775 53.9983 69.3775Z" stroke="#185D31" stroke-width="3" stroke-linecap="round" stroke-linejoin="round"/>
<path d="M43.0961 18.1548C42.3069 14.9844 40.7739 12.0476 38.624 9.58751C36.4741 7.1274 33.7692 5.21472 30.7332 4.00782C27.6972 2.80092 24.4173 2.33449 21.1652 2.64716C17.9131 2.95983 14.7822 4.04259 12.0317 5.80583C9.28126 7.56906 6.99032 9.96205 5.34853 12.7867C3.70675 15.6113 2.76136 18.7864 2.59062 22.0491C2.41987 25.3117 3.02868 28.5681 4.36666 31.5487C5.70463 34.5293 7.73329 37.1484 10.2847 39.1891" stroke="#185D31" stroke-width="3" stroke-linecap="round" stroke-linejoin="round"/>
<path d="M23.1406 23.1948L30.8549 15.4805" stroke="#185D31" stroke-width="3" stroke-linecap="round" stroke-linejoin="round"/>
<path d="M33.4258 48.8577V43.7148H25.7115C22.9836 43.7148 20.3673 44.7985 18.4384 46.7275C16.5095 48.6564 15.4258 51.2726 15.4258 54.0006V64.2863" stroke="#185D31" stroke-width="3" stroke-linecap="round" stroke-linejoin="round"/>
<path d="M69.4258 64.2351V38.5208C69.4258 37.1568 68.8839 35.8487 67.9195 34.8842C66.955 33.9198 65.6469 33.3779 64.2829 33.3779H38.5686C37.2047 33.3779 35.8966 33.9198 34.9321 34.8842C33.9676 35.8487 33.4258 37.1568 33.4258 38.5208V48.8065" stroke="#185D31" stroke-width="3" stroke-linecap="round" stroke-linejoin="round"/>
</svg>
