<svg width="24" height="24" viewBox="0 0 24 24" fill="none" xmlns="http://www.w3.org/2000/svg">
<g clip-path="url(#clip0_2363_8791)">
<path d="M6.42847 7.71484L6.85704 9.42913" stroke="#185D31" stroke-linecap="round" stroke-linejoin="round"/>
<path d="M12.4286 7.71484L12 9.42913" stroke="#185D31" stroke-linecap="round" stroke-linejoin="round"/>
<path d="M3.11995 12.8566H17.1428L18.8571 4.28516H1.71423C1.58887 4.28562 1.46513 4.31357 1.35174 4.36705C1.23835 4.42052 1.13808 4.49822 1.05798 4.59466C0.977886 4.69111 0.91992 4.80394 0.888172 4.92522C0.856423 5.0465 0.851664 5.17327 0.874231 5.29658L2.27995 12.1537C2.31274 12.352 2.41552 12.5319 2.56964 12.6609C2.72376 12.7898 2.91901 12.8593 3.11995 12.8566V12.8566Z" stroke="#185D31" stroke-linecap="round" stroke-linejoin="round"/>
<path d="M18.8571 4.28599L19.5771 1.54314C19.6166 1.34953 19.7218 1.17553 19.8748 1.05057C20.0279 0.925613 20.2195 0.857382 20.4171 0.857422H23.1428" stroke="#185D31" stroke-linecap="round" stroke-linejoin="round"/>
<path d="M17.1428 12.8574L16.4228 16.4574C16.3833 16.651 16.2781 16.825 16.125 16.95C15.972 17.0749 15.7804 17.1432 15.5828 17.1431H5.14282" stroke="#185D31" stroke-linecap="round" stroke-linejoin="round"/>
<path d="M5.99997 23.144C6.47335 23.144 6.85711 22.7602 6.85711 22.2868C6.85711 21.8134 6.47335 21.4297 5.99997 21.4297C5.52658 21.4297 5.14282 21.8134 5.14282 22.2868C5.14282 22.7602 5.52658 23.144 5.99997 23.144Z" fill="#185D31" stroke="#185D31" stroke-linecap="round" stroke-linejoin="round"/>
<path d="M14.5714 23.144C15.0448 23.144 15.4285 22.7602 15.4285 22.2868C15.4285 21.8134 15.0448 21.4297 14.5714 21.4297C14.098 21.4297 13.7142 21.8134 13.7142 22.2868C13.7142 22.7602 14.098 23.144 14.5714 23.144Z" fill="#185D31" stroke="#185D31" stroke-linecap="round" stroke-linejoin="round"/>
</g>
<defs>
<clipPath id="clip0_2363_8791">
<rect width="24" height="24" fill="white"/>
</clipPath>
</defs>
</svg>
