<svg width="49" height="18" viewBox="0 0 49 18" fill="none" xmlns="http://www.w3.org/2000/svg">
<path d="M39.946 17.5455H9.0384C4.3196 17.5455 0.492188 13.7211 0.492188 8.99934C0.492188 4.28053 4.31665 0.453125 9.0384 0.453125H39.946C44.6648 0.453125 48.4922 4.27759 48.4922 8.99934C48.4922 13.7181 44.6677 17.5455 39.946 17.5455Z" fill="#00F1BC"/>
<path d="M40.3961 5.83684L38.1838 14.2389V14.2654H39.896L42.1083 5.86332H40.3961V5.83684ZM13.2012 10.588C12.9512 10.7263 12.6481 10.7822 12.3716 10.7822C11.7626 10.7822 11.4037 10.6704 11.3772 10.1732V10.1467C11.3772 10.1202 11.3772 10.1202 11.3772 10.0908V8.65518V8.48749V7.46371V7.02243V6.85768V5.86332L9.85627 6.05748C10.8801 5.86332 11.4861 5.03371 11.4861 4.23351V3.73633H9.7739V6.08396L9.66211 6.11044V10.4497C9.71801 11.6647 10.5182 12.3855 11.845 12.3855C12.3157 12.3855 12.8394 12.2737 13.2277 12.109L13.2012 10.588Z" fill="#282929"/>
<path d="M13.477 5.50447L8.66992 6.25171V7.46671L13.4799 6.71947C13.477 6.71947 13.477 5.50447 13.477 5.50447ZM13.477 7.29903L8.66992 8.04627V9.20832L13.4799 8.46108V7.29903H13.477ZM18.893 7.8521C18.8106 6.49883 17.981 5.69569 16.5983 5.69569C15.7981 5.69569 15.1627 5.99871 14.692 6.58121C14.2507 7.16076 14.0006 8.01685 14.0006 9.04063C14.0006 10.0644 14.2213 10.9205 14.692 11.5001C15.1333 12.0796 15.7981 12.3856 16.5983 12.3856C17.981 12.3856 18.8371 11.5854 18.893 10.2027V12.2473H20.6052V5.8369L18.893 6.11344V7.8521ZM18.9783 9.04063C18.9783 10.2556 18.3429 11.0294 17.375 11.0294C16.3806 11.0294 15.7717 10.2821 15.7717 9.04063C15.7717 7.79621 16.3806 7.05191 17.375 7.05191C17.8722 7.05191 18.287 7.24607 18.5635 7.60498C18.8401 7.9639 18.9783 8.46108 18.9783 9.04063ZM25.6094 5.69864C24.2267 5.69864 23.3706 6.49883 23.3147 7.85505V3.95703L21.6025 4.23357V12.2767H23.3147V10.2321C23.3706 11.5854 24.2267 12.415 25.6094 12.415C27.2392 12.415 28.2071 11.1706 28.2071 9.07005C28.2071 6.96954 27.2392 5.69864 25.6094 5.69864ZM24.8356 11.0323C23.8678 11.0323 23.2323 10.2586 23.2323 9.04357C23.2323 8.46402 23.3706 7.96684 23.6471 7.60793C23.9237 7.24902 24.3385 7.05485 24.8356 7.05485C25.83 7.05485 26.439 7.80209 26.439 9.04357C26.439 10.2851 25.83 11.0323 24.8356 11.0323ZM32.8788 5.69864C31.4961 5.69864 30.64 6.49883 30.5841 7.85505V3.95703L28.8719 4.23357V12.2767H30.5841V10.2321C30.64 11.5854 31.4961 12.415 32.8788 12.415C34.5086 12.415 35.4765 11.1706 35.4765 9.07005C35.4765 6.96954 34.4821 5.69864 32.8788 5.69864ZM32.1051 11.0323C31.1372 11.0323 30.5017 10.2586 30.5017 9.04357C30.5017 8.46402 30.64 7.96684 30.9165 7.60793C31.1931 7.24902 31.6079 7.05485 32.1051 7.05485C33.0994 7.05485 33.7084 7.80209 33.7084 9.04357C33.7084 10.2851 33.0994 11.0323 32.1051 11.0323ZM35.4765 5.8369H37.3005L38.792 12.2767H37.1622C37.1328 12.2473 35.4765 5.8369 35.4765 5.8369ZM43.5167 6.49883V5.97517H43.2961V5.86338H43.8491V5.97517H43.6285V6.49883H43.5167ZM43.905 6.49883V5.86338H44.1257L44.2375 6.1664C44.2639 6.24877 44.2639 6.27819 44.2934 6.30467C44.2934 6.27819 44.3198 6.24877 44.3493 6.1664L44.461 5.86338H44.6817V6.49883H44.5169V6.00165L44.3522 6.49883H44.2404L44.0757 6.00165V6.49883H43.905Z" fill="#282929"/>
</svg>
