<svg width="32" height="33" viewBox="0 0 32 33" fill="none" xmlns="http://www.w3.org/2000/svg">
<path d="M30.9069 25.4548C31.4779 24.216 31.8554 22.871 32 21.4609L22.5868 23.4201V19.6538L30.9066 17.9235C31.4776 16.6847 31.8551 15.3397 31.9997 13.9296L22.5865 15.8871V2.34222C21.1441 3.13477 19.8631 4.18974 18.8219 5.43414V16.6705L15.0572 17.4536V0.5C13.6148 1.29227 12.3338 2.34752 11.2925 3.59191V18.2364L2.86911 19.9881C2.29808 21.2269 1.92033 22.5718 1.77544 23.982L11.2925 22.0027V26.7458L1.0931 28.8668C0.52207 30.1057 0.144608 31.4506 0 32.8608L10.676 30.6405C11.545 30.4636 12.292 29.9608 12.7776 29.2688L14.7355 26.4282V26.4276C14.9388 26.1337 15.0572 25.7794 15.0572 25.3977V21.2196L18.8219 20.4366V27.9693L30.9066 25.4543L30.9069 25.4548Z" fill="#212121"/>
</svg>
