<svg width="16" height="17" viewBox="0 0 16 17" fill="none" xmlns="http://www.w3.org/2000/svg">
<path d="M5.86487 3.55628C6.81486 1.85209 7.28985 1 8 1C8.71014 1 9.18514 1.85209 10.1351 3.55628L10.3809 3.99717C10.6509 4.48145 10.7858 4.72359 10.9963 4.88335C11.2067 5.04312 11.4689 5.10242 11.9931 5.22104L12.4703 5.32902C14.3151 5.74642 15.2375 5.95511 15.4569 6.6608C15.6764 7.36648 15.0476 8.1018 13.7899 9.57244L13.4646 9.95292C13.1072 10.3708 12.9285 10.5798 12.8481 10.8383C12.7677 11.0968 12.7947 11.3756 12.8488 11.9332L12.898 12.4408C13.0881 14.4029 13.1832 15.384 12.6086 15.8202C12.0341 16.2563 11.1705 15.8587 9.44324 15.0634L8.99638 14.8576C8.50556 14.6316 8.26014 14.5186 8 14.5186C7.73986 14.5186 7.49444 14.6316 7.00361 14.8576L6.55675 15.0634C4.82951 15.8587 3.96588 16.2563 3.39136 15.8202C2.81684 15.384 2.91191 14.4029 3.10205 12.4408L3.15124 11.9332C3.20527 11.3756 3.23228 11.0968 3.1519 10.8383C3.07151 10.5798 2.89282 10.3708 2.53544 9.95292L2.21007 9.57244C0.952437 8.1018 0.323618 7.36648 0.543066 6.6608C0.762513 5.95511 1.68489 5.74642 3.52965 5.32902L4.00691 5.22104C4.53114 5.10243 4.79325 5.04312 5.00371 4.88335C5.21416 4.72359 5.34914 4.48145 5.6191 3.99717L5.86487 3.55628Z" fill="#FFD700" stroke="#FFD700"/>
</svg>
