<svg width="20" height="22" viewBox="0 0 20 22" fill="none" xmlns="http://www.w3.org/2000/svg">
<path d="M19.3168 16.8989C19.6737 16.0848 19.9096 15.201 20 14.2743L14.1167 15.5618V13.0868L19.3166 11.9497C19.6735 11.1357 19.9094 10.2518 19.9998 9.32516L14.1166 10.6115V1.7106C13.2151 2.23142 12.4145 2.92469 11.7637 3.74243V11.1263L9.41075 11.6409V0.5C8.50926 1.02063 7.70865 1.71408 7.05784 2.53183V12.1553L1.79319 13.3064C1.4363 14.1205 1.20021 15.0044 1.10965 15.931L7.05784 14.6304V17.7472L0.683189 19.1411C0.326294 19.9551 0.0903802 20.839 0 21.7656L6.67248 20.3066C7.21565 20.1904 7.68249 19.86 7.98602 19.4052L9.20971 17.5385V17.5381C9.33674 17.345 9.41075 17.1122 9.41075 16.8614V14.1158L11.7637 13.6012V18.5512L19.3166 16.8985L19.3168 16.8989Z" fill="#185D31"/>
</svg>
