<svg width="22" height="19" viewBox="0 0 22 19" fill="none" xmlns="http://www.w3.org/2000/svg">
<path d="M10.2452 15.4402H3.86819C3.02255 15.4402 2.21154 15.1043 1.61358 14.5063C1.01562 13.9084 0.679688 13.0974 0.679688 12.2517V3.74905C0.679688 2.90341 1.01562 2.0924 1.61358 1.49444C2.21154 0.896477 3.02255 0.560547 3.86819 0.560547H16.6222C17.4678 0.560547 18.2788 0.896477 18.8768 1.49444C19.4748 2.0924 19.8107 2.90341 19.8107 3.74905V8.5318M0.679688 5.87472H19.8107M4.93102 11.1889H4.94165M9.18236 11.1889H11.308M14.4965 15.4402H20.8735M14.4965 15.4402L17.685 12.2517M14.4965 15.4402L17.685 18.6287" stroke="#212121" stroke-width="0.731884" stroke-linecap="round" stroke-linejoin="round"/>
</svg>
